<?xml version="1.0" encoding="UTF-8"?>
<svg xmlns="http://www.w3.org/2000/svg" xmlns:xlink="http://www.w3.org/1999/xlink" width="48px" height="48px" viewBox="0 0 48 48" version="1.1">
<defs>
<linearGradient id="linear0" gradientUnits="userSpaceOnUse" x1="148" y1="293" x2="148" y2="319" gradientTransform="matrix(0.773738,0,0,0.827717,45.106457,-5.124993)">
<stop offset="0" style="stop-color:rgb(100%,100%,100%);stop-opacity:0.6;"/>
<stop offset="0.0769231" style="stop-color:rgb(100%,100%,100%);stop-opacity:0.141176;"/>
<stop offset="0.923077" style="stop-color:rgb(100%,100%,100%);stop-opacity:0.0941177;"/>
<stop offset="1" style="stop-color:rgb(100%,100%,100%);stop-opacity:0.235294;"/>
</linearGradient>
<linearGradient id="linear1" gradientUnits="userSpaceOnUse" x1="148" y1="293" x2="148" y2="319" gradientTransform="matrix(0,0.813233,-0.821525,0,435.169464,127.632561)">
<stop offset="0" style="stop-color:rgb(100%,100%,100%);stop-opacity:0.6;"/>
<stop offset="0.0769231" style="stop-color:rgb(100%,100%,100%);stop-opacity:0.141176;"/>
<stop offset="0.923077" style="stop-color:rgb(100%,100%,100%);stop-opacity:0.0941177;"/>
<stop offset="1" style="stop-color:rgb(100%,100%,100%);stop-opacity:0.235294;"/>
</linearGradient>
<linearGradient id="linear2" gradientUnits="userSpaceOnUse" x1="36.755821" y1="25.526447" x2="36.755821" y2="84.267944" gradientTransform="matrix(-0.401748,0,0,-0.425593,51.977524,58.797485)">
<stop offset="0" style="stop-color:rgb(21.176471%,53.725493%,90.196079%);stop-opacity:1;"/>
<stop offset="1" style="stop-color:rgb(39.215687%,72.941178%,100%);stop-opacity:1;"/>
</linearGradient>
<linearGradient id="linear3" gradientUnits="userSpaceOnUse" x1="148" y1="293" x2="148" y2="319" gradientTransform="matrix(-0.773738,0,0,-0.821525,297.863373,524.123535)">
<stop offset="0" style="stop-color:rgb(100%,100%,100%);stop-opacity:0.6;"/>
<stop offset="0.0769231" style="stop-color:rgb(100%,100%,100%);stop-opacity:0.141176;"/>
<stop offset="0.923077" style="stop-color:rgb(100%,100%,100%);stop-opacity:0.0941177;"/>
<stop offset="1" style="stop-color:rgb(100%,100%,100%);stop-opacity:0.235294;"/>
</linearGradient>
<linearGradient id="linear4" gradientUnits="userSpaceOnUse" x1="14.673105" y1="39.809586" x2="73.876854" y2="39.809586" gradientTransform="matrix(0,-0.422271,0.425593,0,-9.731766,54.129608)">
<stop offset="0" style="stop-color:rgb(21.176471%,53.725493%,90.196079%);stop-opacity:1;"/>
<stop offset="1" style="stop-color:rgb(39.215687%,72.941178%,100%);stop-opacity:1;"/>
</linearGradient>
<linearGradient id="linear5" gradientUnits="userSpaceOnUse" x1="164.974991" y1="299.747192" x2="134.234573" y2="299.747192" gradientTransform="matrix(0,-0.813262,0.821525,0,-91.249718,393.167847)">
<stop offset="0" style="stop-color:rgb(100%,100%,100%);stop-opacity:0.6;"/>
<stop offset="0.0769231" style="stop-color:rgb(100%,100%,100%);stop-opacity:0.141176;"/>
<stop offset="0.923077" style="stop-color:rgb(100%,100%,100%);stop-opacity:0.0941177;"/>
<stop offset="1" style="stop-color:rgb(100%,100%,100%);stop-opacity:0.235294;"/>
</linearGradient>
</defs>
<g id="surface80522">
<path style=" stroke:none;fill-rule:nonzero;fill:rgb(39.215687%,72.941178%,100%);fill-opacity:1;" d="M 6.210938 3.933594 C 4.839844 3.933594 4.210938 4.492188 4.210938 5.933594 L 4.210938 20.933594 L 11.210938 20.933594 L 11.210938 10.933594 L 21.210938 10.933594 L 21.210938 3.933594 Z M 6.210938 3.933594 "/>
<path style="fill:none;stroke-width:0.999989;stroke-linecap:butt;stroke-linejoin:round;stroke:rgb(0%,18.039216%,60.000002%);stroke-opacity:0.6;stroke-miterlimit:4;" d="M 154 239.5 C 152.300781 239.5 151.460938 240.539062 151.5 242 L 151.5 257.5 L 159.5 257.5 L 159.5 247.5 L 169.5 247.5 L 169.5 239.5 Z M 154 239.5 " transform="matrix(1,0,0,1,-147.789062,-236.066406)"/>
<path style="fill:none;stroke-width:0.999989;stroke-linecap:butt;stroke-linejoin:round;stroke:url(#linear0);stroke-miterlimit:4;" d="M 154.441406 240.515625 C 152.503906 240.515625 152.488281 242 152.445312 242.65625 L 152.511719 256.558594 L 158.5 256.5 L 158.5 246.5 L 168.519531 246.515625 L 168.5 240.5 Z M 154.441406 240.515625 " transform="matrix(1,0,0,1,-147.789062,-236.066406)"/>
<path style="fill-rule:nonzero;fill:rgb(98.039216%,98.039216%,98.039216%);fill-opacity:1;stroke-width:1;stroke-linecap:butt;stroke-linejoin:round;stroke:rgb(83.137256%,83.137256%,83.137256%);stroke-opacity:0.6;stroke-miterlimit:4;" d="M 162.5 250.5 L 181.5 250.5 L 181.5 269.5 L 162.5 269.5 Z M 162.5 250.5 " transform="matrix(1,0,0,1,-147.789062,-236.066406)"/>
<path style=" stroke:none;fill-rule:nonzero;fill:rgb(0%,0%,0%);fill-opacity:1;" d="M 16.210938 15.933594 L 16.210938 20.933594 L 21.210938 20.933594 L 21.210938 15.933594 Z M 17.210938 16.933594 L 20.210938 16.933594 L 20.210938 19.933594 L 17.210938 19.933594 Z M 17.210938 16.933594 "/>
<path style=" stroke:none;fill-rule:nonzero;fill:rgb(0%,0%,0%);fill-opacity:1;" d="M 24.210938 23.933594 L 23.210938 23.933594 L 23.210938 22.933594 L 20.210938 22.933594 L 20.210938 23.933594 L 21.210938 23.933594 L 21.210938 24.933594 L 24.210938 24.933594 Z M 24.210938 23.933594 "/>
<path style=" stroke:none;fill-rule:nonzero;fill:rgb(0%,0%,0%);fill-opacity:1;" d="M 23.210938 15.933594 L 23.210938 17.933594 L 22.210938 17.933594 L 22.210938 20.945312 L 23.210938 20.945312 L 23.210938 18.933594 L 24.210938 18.933594 L 24.210938 15.933594 Z M 23.210938 15.933594 "/>
<path style=" stroke:none;fill-rule:nonzero;fill:rgb(0%,0%,0%);fill-opacity:1;" d="M 18.210938 21.933594 L 18.210938 23.933594 L 16.210938 23.933594 L 16.210938 24.933594 L 19.210938 24.933594 L 19.210938 21.933594 Z M 18.210938 21.933594 "/>
<path style=" stroke:none;fill-rule:nonzero;fill:rgb(0%,0%,0%);fill-opacity:1;" d="M 18.175781 17.898438 L 19.210938 17.898438 L 19.210938 18.933594 L 18.175781 18.933594 Z M 18.175781 17.898438 "/>
<path style=" stroke:none;fill-rule:nonzero;fill:rgb(0%,0%,0%);fill-opacity:1;" d="M 27.210938 21.828125 L 28.210938 21.828125 L 28.210938 22.878906 L 27.210938 22.878906 Z M 27.210938 21.828125 "/>
<path style=" stroke:none;fill-rule:nonzero;fill:rgb(0%,0%,0%);fill-opacity:1;" d="M 27.210938 15.933594 L 27.210938 20.933594 L 32.210938 20.933594 L 32.210938 15.933594 Z M 28.210938 16.933594 L 31.210938 16.933594 L 31.210938 19.933594 L 28.210938 19.933594 Z M 28.210938 16.933594 "/>
<path style=" stroke:none;fill-rule:nonzero;fill:rgb(0%,0%,0%);fill-opacity:1;" d="M 29.175781 17.898438 L 30.210938 17.898438 L 30.210938 18.933594 L 29.175781 18.933594 Z M 29.175781 17.898438 "/>
<path style=" stroke:none;fill-rule:nonzero;fill:rgb(0%,0%,0%);fill-opacity:1;" d="M 16.210938 26.933594 L 16.210938 31.933594 L 21.210938 31.933594 L 21.210938 26.933594 Z M 17.210938 27.933594 L 20.210938 27.933594 L 20.210938 30.933594 L 17.210938 30.933594 Z M 17.210938 27.933594 "/>
<path style=" stroke:none;fill-rule:nonzero;fill:rgb(0%,0%,0%);fill-opacity:1;" d="M 18.175781 28.898438 L 19.210938 28.898438 L 19.210938 29.933594 L 18.175781 29.933594 Z M 18.175781 28.898438 "/>
<path style=" stroke:none;fill-rule:nonzero;fill:rgb(0%,0%,0%);fill-opacity:1;" d="M 24.210938 26.933594 L 24.210938 28.933594 L 22.210938 28.933594 L 22.210938 29.933594 L 25.210938 29.933594 L 25.210938 26.933594 Z M 24.210938 26.933594 "/>
<path style=" stroke:none;fill-rule:nonzero;fill:rgb(0%,0%,0%);fill-opacity:1;" d="M 25.210938 28.933594 L 25.210938 30.933594 L 23.210938 30.933594 L 23.210938 31.933594 L 26.210938 31.933594 L 26.210938 28.933594 Z M 25.210938 28.933594 "/>
<path style=" stroke:none;fill-rule:nonzero;fill:rgb(0%,0%,0%);fill-opacity:1;" d="M 30.210938 25.933594 L 30.210938 23.933594 L 32.210938 23.933594 L 32.210938 22.933594 L 29.210938 22.933594 L 29.210938 25.933594 Z M 30.210938 25.933594 "/>
<path style=" stroke:none;fill-rule:nonzero;fill:rgb(0%,0%,0%);fill-opacity:1;" d="M 26.210938 22.933594 L 26.210938 24.933594 L 24.210938 24.933594 L 24.210938 25.933594 L 27.210938 25.933594 L 27.210938 22.933594 Z M 26.210938 22.933594 "/>
<path style=" stroke:none;fill-rule:nonzero;fill:rgb(0%,0%,0%);fill-opacity:1;" d="M 31.210938 29.933594 L 31.210938 27.933594 L 32.210938 27.933594 L 32.210938 26.933594 L 30.210938 26.933594 L 30.210938 29.933594 Z M 31.210938 29.933594 "/>
<path style=" stroke:none;fill-rule:nonzero;fill:rgb(0%,0%,0%);fill-opacity:1;" d="M 28.210938 25.933594 L 28.210938 27.933594 L 26.210938 27.933594 L 26.210938 28.933594 L 29.210938 28.933594 L 29.210938 25.933594 Z M 28.210938 25.933594 "/>
<path style=" stroke:none;fill-rule:nonzero;fill:rgb(0%,0%,0%);fill-opacity:1;" d="M 31.210938 30.933594 L 30.210938 30.933594 L 30.210938 29.933594 L 27.210938 29.933594 L 27.210938 30.933594 L 28.210938 30.933594 L 28.210938 31.933594 L 31.210938 31.933594 Z M 31.210938 30.933594 "/>
<path style=" stroke:none;fill-rule:nonzero;fill:rgb(0%,0%,0%);fill-opacity:1;" d="M 25.210938 17.621094 L 25.210938 19.726562 L 24.210938 19.726562 L 24.210938 22.890625 L 25.210938 22.890625 L 25.210938 20.777344 L 26.210938 20.777344 L 26.210938 17.621094 Z M 25.210938 17.621094 "/>
<path style=" stroke:none;fill-rule:nonzero;fill:rgb(0%,0%,0%);fill-opacity:1;" d="M 20.210938 24.933594 L 21.210938 24.933594 L 21.210938 25.933594 L 20.210938 25.933594 Z M 20.210938 24.933594 "/>
<path style=" stroke:none;fill-rule:nonzero;fill:rgb(39.215687%,72.941178%,100%);fill-opacity:1;" d="M 44.234375 6.367188 C 44.246094 4.765625 43.761719 3.933594 41.777344 3.929688 L 27.210938 3.933594 L 27.210938 10.933594 L 37.210938 10.933594 L 37.1875 21.921875 L 44.136719 21.921875 Z M 44.234375 6.367188 "/>
<path style="fill:none;stroke-width:0.999988;stroke-linecap:butt;stroke-linejoin:round;stroke:rgb(0%,18.039216%,60.000002%);stroke-opacity:0.6;stroke-miterlimit:4;" d="M 192.496094 242.050781 C 192.496094 240.265625 191.375 239.460938 189.925781 239.5 L 174.5 239.5 L 174.5 247.5 L 184.5 247.5 L 184.503906 258.476562 L 192.5 258.421875 Z M 192.496094 242.050781 " transform="matrix(1,0,0,1,-147.789062,-236.066406)"/>
<path style="fill:none;stroke-width:0.999988;stroke-linecap:butt;stroke-linejoin:round;stroke:url(#linear1);stroke-miterlimit:4;" d="M 191.367188 242.546875 C 191.339844 240.515625 189.894531 240.496094 189.238281 240.453125 L 175.441406 240.523438 L 175.5 246.5 L 185.515625 246.558594 L 185.410156 257.34375 L 191.585938 257.34375 Z M 191.367188 242.546875 " transform="matrix(1,0,0,1,-147.789062,-236.066406)"/>
<path style=" stroke:none;fill-rule:nonzero;fill:url(#linear2);" d="M 41.210938 44.933594 C 43.640625 44.933594 44.386719 44.433594 44.210938 41.933594 L 44.210938 27.933594 L 37.210938 27.933594 L 37.210938 37.933594 L 26.210938 37.933594 L 26.210938 44.933594 Z M 41.210938 44.933594 "/>
<path style="fill:none;stroke-width:0.999988;stroke-linecap:butt;stroke-linejoin:round;stroke:rgb(0%,18.039216%,60.000002%);stroke-opacity:0.6;stroke-miterlimit:4;" d="M 189.128906 281.496094 C 190.824219 281.496094 192.476562 281 192.503906 279 L 192.5 263.5 L 184.589844 263.5 L 184.550781 273.558594 L 173.5 273.503906 L 173.550781 281.5 Z M 189.128906 281.496094 " transform="matrix(1,0,0,1,-147.789062,-236.066406)"/>
<path style="fill:none;stroke-width:0.999988;stroke-linecap:butt;stroke-linejoin:round;stroke:url(#linear3);stroke-miterlimit:4;" d="M 189 280.386719 C 190.9375 280.367188 191.519531 278.652344 191.5625 278 L 191.5 264.5 L 185.4375 264.285156 L 185.5 274.5 L 174.5 274.5 L 174.453125 280.542969 Z M 189 280.386719 " transform="matrix(1,0,0,1,-147.789062,-236.066406)"/>
<path style=" stroke:none;fill-rule:nonzero;fill:url(#linear4);" d="M 4.210938 41.933594 C 4.210938 43.535156 4.210938 44.933594 6.210938 44.933594 L 21.234375 44.921875 L 21.210938 37.933594 L 11.210938 37.933594 L 11.210938 26.933594 L 4.210938 26.933594 Z M 4.210938 41.933594 "/>
<path style="fill:none;stroke-width:0.999988;stroke-linecap:butt;stroke-linejoin:round;stroke:rgb(0%,18.039216%,60.000002%);stroke-opacity:0.6;stroke-miterlimit:4;" d="M 151.503906 278.925781 C 151.503906 280.710938 152.625 281.515625 154.074219 281.476562 L 169.5 281.476562 L 169.5 273.5 L 159.5 273.5 L 159.496094 262.5 L 151.5 262.554688 Z M 151.503906 278.925781 " transform="matrix(1,0,0,1,-147.789062,-236.066406)"/>
<path style="fill:none;stroke-width:0.999988;stroke-linecap:butt;stroke-linejoin:round;stroke:url(#linear5);stroke-miterlimit:4;" d="M 152.441406 278 C 152.433594 280.035156 152.820312 280.433594 154.5 280.5 L 168.5 280.5 L 168.5 274.5 L 158.5 274.5 L 158.511719 263.453125 L 152.5 263.5 Z M 152.441406 278 " transform="matrix(1,0,0,1,-147.789062,-236.066406)"/>
</g>
</svg>
