<?xml version="1.0" encoding="UTF-8" standalone="no"?>
<svg
   xmlns:dc="http://purl.org/dc/elements/1.1/"
   xmlns:cc="http://creativecommons.org/ns#"
   xmlns:rdf="http://www.w3.org/1999/02/22-rdf-syntax-ns#"
   xmlns:svg="http://www.w3.org/2000/svg"
   xmlns="http://www.w3.org/2000/svg"
   xmlns:sodipodi="http://sodipodi.sourceforge.net/DTD/sodipodi-0.dtd"
   xmlns:inkscape="http://www.inkscape.org/namespaces/inkscape"
   width="0.63500005cm"
   height="0.63500005cm"
   viewBox="0 0 2.9978545 2.9978545"
   preserveAspectRatio="none"
   version="1.1"
   id="svg634"
   sodipodi:docname="com.github.sergius02.qrit.svg"
   inkscape:version="1.0.1 (3bc2e813f5, 2020-09-07)">
  <metadata
     id="metadata640">
    <rdf:RDF>
      <cc:Work
         rdf:about="">
        <dc:format>image/svg+xml</dc:format>
        <dc:type
           rdf:resource="http://purl.org/dc/dcmitype/StillImage" />
        <dc:title></dc:title>
      </cc:Work>
    </rdf:RDF>
  </metadata>
  <defs
     id="defs638">
    <filter
       style="color-interpolation-filters:sRGB"
       inkscape:label="Drop Shadow"
       id="filter1727">
      <feFlood
         flood-opacity="0.501961"
         flood-color="rgb(0,0,0)"
         result="flood"
         id="feFlood1717" />
      <feComposite
         in="flood"
         in2="SourceGraphic"
         operator="in"
         result="composite1"
         id="feComposite1719" />
      <feGaussianBlur
         in="composite1"
         stdDeviation="0.3"
         result="blur"
         id="feGaussianBlur1721" />
      <feOffset
         dx="0.2"
         dy="0.2"
         result="offset"
         id="feOffset1723" />
      <feComposite
         in="SourceGraphic"
         in2="offset"
         operator="over"
         result="composite2"
         id="feComposite1725" />
    </filter>
    <filter
       style="color-interpolation-filters:sRGB"
       inkscape:label="Drop Shadow"
       id="filter1979">
      <feFlood
         flood-opacity="0.6"
         flood-color="rgb(0,0,0)"
         result="flood"
         id="feFlood1969" />
      <feComposite
         in="flood"
         in2="SourceGraphic"
         operator="in"
         result="composite1"
         id="feComposite1971" />
      <feGaussianBlur
         in="composite1"
         stdDeviation="0.2"
         result="blur"
         id="feGaussianBlur1973" />
      <feOffset
         dx="0.2"
         dy="0.2"
         result="offset"
         id="feOffset1975" />
      <feComposite
         in="SourceGraphic"
         in2="offset"
         operator="over"
         result="composite2"
         id="feComposite1977" />
    </filter>
  </defs>
  <sodipodi:namedview
     pagecolor="#ffffff"
     bordercolor="#666666"
     borderopacity="1"
     objecttolerance="10"
     gridtolerance="10"
     guidetolerance="10"
     inkscape:pageopacity="0"
     inkscape:pageshadow="2"
     inkscape:window-width="1920"
     inkscape:window-height="1017"
     id="namedview636"
     showgrid="false"
     inkscape:zoom="2.3581605"
     inkscape:cx="127.81102"
     inkscape:cy="133.48412"
     inkscape:window-x="0"
     inkscape:window-y="330"
     inkscape:window-maximized="1"
     inkscape:current-layer="QRcode"
     inkscape:document-rotation="0"
     fit-margin-top="0"
     fit-margin-left="0"
     fit-margin-right="0"
     fit-margin-bottom="0" />
  <g
     id="QRcode"
     transform="matrix(0.96900338,0,0,0.96900338,-0.02360568,-0.02360568)">
    <rect
       x="0.024359485"
       y="0.024359485"
       width="33"
       height="33"
       fill="#3689e6"
       id="rect2"
       ry="2.7032006"
       style="filter:url(#filter1727)"
       transform="matrix(0.078125,0,0,0.078125,0.28027019,0.28027019)" />
    <g
       id="Pattern"
       transform="matrix(0.078125,0,0,0.078125,0.28217336,0.28217336)"
       style="filter:url(#filter1979)">
      <rect
         x="4"
         y="4"
         width="1"
         height="1"
         fill="#ffffff"
         id="rect4" />
      <rect
         x="5"
         y="4"
         width="1"
         height="1"
         fill="#ffffff"
         id="rect6" />
      <rect
         x="6"
         y="4"
         width="1"
         height="1"
         fill="#ffffff"
         id="rect8" />
      <rect
         x="7"
         y="4"
         width="1"
         height="1"
         fill="#ffffff"
         id="rect10" />
      <rect
         x="8"
         y="4"
         width="1"
         height="1"
         fill="#ffffff"
         id="rect12" />
      <rect
         x="9"
         y="4"
         width="1"
         height="1"
         fill="#ffffff"
         id="rect14" />
      <rect
         x="10"
         y="4"
         width="1"
         height="1"
         fill="#ffffff"
         id="rect16" />
      <rect
         x="14"
         y="4"
         width="1"
         height="1"
         fill="#ffffff"
         id="rect18" />
      <rect
         x="17"
         y="4"
         width="1"
         height="1"
         fill="#ffffff"
         id="rect20" />
      <rect
         x="18"
         y="4"
         width="1"
         height="1"
         fill="#ffffff"
         id="rect22" />
      <rect
         x="19"
         y="4"
         width="1"
         height="1"
         fill="#ffffff"
         id="rect24" />
      <rect
         x="22"
         y="4"
         width="1"
         height="1"
         fill="#ffffff"
         id="rect26" />
      <rect
         x="23"
         y="4"
         width="1"
         height="1"
         fill="#ffffff"
         id="rect28" />
      <rect
         x="24"
         y="4"
         width="1"
         height="1"
         fill="#ffffff"
         id="rect30" />
      <rect
         x="25"
         y="4"
         width="1"
         height="1"
         fill="#ffffff"
         id="rect32" />
      <rect
         x="26"
         y="4"
         width="1"
         height="1"
         fill="#ffffff"
         id="rect34" />
      <rect
         x="27"
         y="4"
         width="1"
         height="1"
         fill="#ffffff"
         id="rect36" />
      <rect
         x="28"
         y="4"
         width="1"
         height="1"
         fill="#ffffff"
         id="rect38" />
      <rect
         x="4"
         y="5"
         width="1"
         height="1"
         fill="#ffffff"
         id="rect40" />
      <rect
         x="10"
         y="5"
         width="1"
         height="1"
         fill="#ffffff"
         id="rect42" />
      <rect
         x="12"
         y="5"
         width="1"
         height="1"
         fill="#ffffff"
         id="rect44" />
      <rect
         x="13"
         y="5"
         width="1"
         height="1"
         fill="#ffffff"
         id="rect46" />
      <rect
         x="14"
         y="5"
         width="1"
         height="1"
         fill="#ffffff"
         id="rect48" />
      <rect
         x="18"
         y="5"
         width="1"
         height="1"
         fill="#ffffff"
         id="rect50" />
      <rect
         x="19"
         y="5"
         width="1"
         height="1"
         fill="#ffffff"
         id="rect52" />
      <rect
         x="22"
         y="5"
         width="1"
         height="1"
         fill="#ffffff"
         id="rect54" />
      <rect
         x="28"
         y="5"
         width="1"
         height="1"
         fill="#ffffff"
         id="rect56" />
      <rect
         x="4"
         y="6"
         width="1"
         height="1"
         fill="#ffffff"
         id="rect58" />
      <rect
         x="6"
         y="6"
         width="1"
         height="1"
         fill="#ffffff"
         id="rect60" />
      <rect
         x="7"
         y="6"
         width="1"
         height="1"
         fill="#ffffff"
         id="rect62" />
      <rect
         x="8"
         y="6"
         width="1"
         height="1"
         fill="#ffffff"
         id="rect64" />
      <rect
         x="10"
         y="6"
         width="1"
         height="1"
         fill="#ffffff"
         id="rect66" />
      <rect
         x="12"
         y="6"
         width="1"
         height="1"
         fill="#ffffff"
         id="rect68" />
      <rect
         x="18"
         y="6"
         width="1"
         height="1"
         fill="#ffffff"
         id="rect70" />
      <rect
         x="19"
         y="6"
         width="1"
         height="1"
         fill="#ffffff"
         id="rect72" />
      <rect
         x="22"
         y="6"
         width="1"
         height="1"
         fill="#ffffff"
         id="rect74" />
      <rect
         x="24"
         y="6"
         width="1"
         height="1"
         fill="#ffffff"
         id="rect76" />
      <rect
         x="25"
         y="6"
         width="1"
         height="1"
         fill="#ffffff"
         id="rect78" />
      <rect
         x="26"
         y="6"
         width="1"
         height="1"
         fill="#ffffff"
         id="rect80" />
      <rect
         x="28"
         y="6"
         width="1"
         height="1"
         fill="#ffffff"
         id="rect82" />
      <rect
         x="4"
         y="7"
         width="1"
         height="1"
         fill="#ffffff"
         id="rect84" />
      <rect
         x="6"
         y="7"
         width="1"
         height="1"
         fill="#ffffff"
         id="rect86" />
      <rect
         x="7"
         y="7"
         width="1"
         height="1"
         fill="#ffffff"
         id="rect88" />
      <rect
         x="8"
         y="7"
         width="1"
         height="1"
         fill="#ffffff"
         id="rect90" />
      <rect
         x="10"
         y="7"
         width="1"
         height="1"
         fill="#ffffff"
         id="rect92" />
      <rect
         x="13"
         y="7"
         width="1"
         height="1"
         fill="#ffffff"
         id="rect94" />
      <rect
         x="22"
         y="7"
         width="1"
         height="1"
         fill="#ffffff"
         id="rect96" />
      <rect
         x="24"
         y="7"
         width="1"
         height="1"
         fill="#ffffff"
         id="rect98" />
      <rect
         x="25"
         y="7"
         width="1"
         height="1"
         fill="#ffffff"
         id="rect100" />
      <rect
         x="26"
         y="7"
         width="1"
         height="1"
         fill="#ffffff"
         id="rect102" />
      <rect
         x="28"
         y="7"
         width="1"
         height="1"
         fill="#ffffff"
         id="rect104" />
      <rect
         x="4"
         y="8"
         width="1"
         height="1"
         fill="#ffffff"
         id="rect106" />
      <rect
         x="6"
         y="8"
         width="1"
         height="1"
         fill="#ffffff"
         id="rect108" />
      <rect
         x="7"
         y="8"
         width="1"
         height="1"
         fill="#ffffff"
         id="rect110" />
      <rect
         x="8"
         y="8"
         width="1"
         height="1"
         fill="#ffffff"
         id="rect112" />
      <rect
         x="10"
         y="8"
         width="1"
         height="1"
         fill="#ffffff"
         id="rect114" />
      <rect
         x="12"
         y="8"
         width="1"
         height="1"
         fill="#ffffff"
         id="rect116" />
      <rect
         x="13"
         y="8"
         width="1"
         height="1"
         fill="#ffffff"
         id="rect118" />
      <rect
         x="14"
         y="8"
         width="1"
         height="1"
         fill="#ffffff"
         id="rect120" />
      <rect
         x="16"
         y="8"
         width="1"
         height="1"
         fill="#ffffff"
         id="rect122" />
      <rect
         x="18"
         y="8"
         width="1"
         height="1"
         fill="#ffffff"
         id="rect124" />
      <rect
         x="19"
         y="8"
         width="1"
         height="1"
         fill="#ffffff"
         id="rect126" />
      <rect
         x="20"
         y="8"
         width="1"
         height="1"
         fill="#ffffff"
         id="rect128" />
      <rect
         x="22"
         y="8"
         width="1"
         height="1"
         fill="#ffffff"
         id="rect130" />
      <rect
         x="24"
         y="8"
         width="1"
         height="1"
         fill="#ffffff"
         id="rect132" />
      <rect
         x="25"
         y="8"
         width="1"
         height="1"
         fill="#ffffff"
         id="rect134" />
      <rect
         x="26"
         y="8"
         width="1"
         height="1"
         fill="#ffffff"
         id="rect136" />
      <rect
         x="28"
         y="8"
         width="1"
         height="1"
         fill="#ffffff"
         id="rect138" />
      <rect
         x="4"
         y="9"
         width="1"
         height="1"
         fill="#ffffff"
         id="rect140" />
      <rect
         x="10"
         y="9"
         width="1"
         height="1"
         fill="#ffffff"
         id="rect142" />
      <rect
         x="12"
         y="9"
         width="1"
         height="1"
         fill="#ffffff"
         id="rect144" />
      <rect
         x="14"
         y="9"
         width="1"
         height="1"
         fill="#ffffff"
         id="rect146" />
      <rect
         x="19"
         y="9"
         width="1"
         height="1"
         fill="#ffffff"
         id="rect148" />
      <rect
         x="20"
         y="9"
         width="1"
         height="1"
         fill="#ffffff"
         id="rect150" />
      <rect
         x="22"
         y="9"
         width="1"
         height="1"
         fill="#ffffff"
         id="rect152" />
      <rect
         x="28"
         y="9"
         width="1"
         height="1"
         fill="#ffffff"
         id="rect154" />
      <rect
         x="4"
         y="10"
         width="1"
         height="1"
         fill="#ffffff"
         id="rect156" />
      <rect
         x="5"
         y="10"
         width="1"
         height="1"
         fill="#ffffff"
         id="rect158" />
      <rect
         x="6"
         y="10"
         width="1"
         height="1"
         fill="#ffffff"
         id="rect160" />
      <rect
         x="7"
         y="10"
         width="1"
         height="1"
         fill="#ffffff"
         id="rect162" />
      <rect
         x="8"
         y="10"
         width="1"
         height="1"
         fill="#ffffff"
         id="rect164" />
      <rect
         x="9"
         y="10"
         width="1"
         height="1"
         fill="#ffffff"
         id="rect166" />
      <rect
         x="10"
         y="10"
         width="1"
         height="1"
         fill="#ffffff"
         id="rect168" />
      <rect
         x="12"
         y="10"
         width="1"
         height="1"
         fill="#ffffff"
         id="rect170" />
      <rect
         x="14"
         y="10"
         width="1"
         height="1"
         fill="#ffffff"
         id="rect172" />
      <rect
         x="16"
         y="10"
         width="1"
         height="1"
         fill="#ffffff"
         id="rect174" />
      <rect
         x="18"
         y="10"
         width="1"
         height="1"
         fill="#ffffff"
         id="rect176" />
      <rect
         x="20"
         y="10"
         width="1"
         height="1"
         fill="#ffffff"
         id="rect178" />
      <rect
         x="22"
         y="10"
         width="1"
         height="1"
         fill="#ffffff"
         id="rect180" />
      <rect
         x="23"
         y="10"
         width="1"
         height="1"
         fill="#ffffff"
         id="rect182" />
      <rect
         x="24"
         y="10"
         width="1"
         height="1"
         fill="#ffffff"
         id="rect184" />
      <rect
         x="25"
         y="10"
         width="1"
         height="1"
         fill="#ffffff"
         id="rect186" />
      <rect
         x="26"
         y="10"
         width="1"
         height="1"
         fill="#ffffff"
         id="rect188" />
      <rect
         x="27"
         y="10"
         width="1"
         height="1"
         fill="#ffffff"
         id="rect190" />
      <rect
         x="28"
         y="10"
         width="1"
         height="1"
         fill="#ffffff"
         id="rect192" />
      <rect
         x="12"
         y="11"
         width="1"
         height="1"
         fill="#ffffff"
         id="rect194" />
      <rect
         x="14"
         y="11"
         width="1"
         height="1"
         fill="#ffffff"
         id="rect196" />
      <rect
         x="18"
         y="11"
         width="1"
         height="1"
         fill="#ffffff"
         id="rect198" />
      <rect
         x="20"
         y="11"
         width="1"
         height="1"
         fill="#ffffff"
         id="rect200" />
      <rect
         x="4"
         y="12"
         width="1"
         height="1"
         fill="#ffffff"
         id="rect202" />
      <rect
         x="5"
         y="12"
         width="1"
         height="1"
         fill="#ffffff"
         id="rect204" />
      <rect
         x="7"
         y="12"
         width="1"
         height="1"
         fill="#ffffff"
         id="rect206" />
      <rect
         x="10"
         y="12"
         width="1"
         height="1"
         fill="#ffffff"
         id="rect208" />
      <rect
         x="11"
         y="12"
         width="1"
         height="1"
         fill="#ffffff"
         id="rect210" />
      <rect
         x="15"
         y="12"
         width="1"
         height="1"
         fill="#ffffff"
         id="rect212" />
      <rect
         x="17"
         y="12"
         width="1"
         height="1"
         fill="#ffffff"
         id="rect214" />
      <rect
         x="18"
         y="12"
         width="1"
         height="1"
         fill="#ffffff"
         id="rect216" />
      <rect
         x="20"
         y="12"
         width="1"
         height="1"
         fill="#ffffff"
         id="rect218" />
      <rect
         x="22"
         y="12"
         width="1"
         height="1"
         fill="#ffffff"
         id="rect220" />
      <rect
         x="23"
         y="12"
         width="1"
         height="1"
         fill="#ffffff"
         id="rect222" />
      <rect
         x="24"
         y="12"
         width="1"
         height="1"
         fill="#ffffff"
         id="rect224" />
      <rect
         x="26"
         y="12"
         width="1"
         height="1"
         fill="#ffffff"
         id="rect226" />
      <rect
         x="27"
         y="12"
         width="1"
         height="1"
         fill="#ffffff"
         id="rect228" />
      <rect
         x="4"
         y="13"
         width="1"
         height="1"
         fill="#ffffff"
         id="rect230" />
      <rect
         x="6"
         y="13"
         width="1"
         height="1"
         fill="#ffffff"
         id="rect232" />
      <rect
         x="7"
         y="13"
         width="1"
         height="1"
         fill="#ffffff"
         id="rect234" />
      <rect
         x="9"
         y="13"
         width="1"
         height="1"
         fill="#ffffff"
         id="rect236" />
      <rect
         x="12"
         y="13"
         width="1"
         height="1"
         fill="#ffffff"
         id="rect238" />
      <rect
         x="13"
         y="13"
         width="1"
         height="1"
         fill="#ffffff"
         id="rect240" />
      <rect
         x="17"
         y="13"
         width="1"
         height="1"
         fill="#ffffff"
         id="rect242" />
      <rect
         x="18"
         y="13"
         width="1"
         height="1"
         fill="#ffffff"
         id="rect244" />
      <rect
         x="20"
         y="13"
         width="1"
         height="1"
         fill="#ffffff"
         id="rect246" />
      <rect
         x="21"
         y="13"
         width="1"
         height="1"
         fill="#ffffff"
         id="rect248" />
      <rect
         x="22"
         y="13"
         width="1"
         height="1"
         fill="#ffffff"
         id="rect250" />
      <rect
         x="28"
         y="13"
         width="1"
         height="1"
         fill="#ffffff"
         id="rect252" />
      <rect
         x="4"
         y="14"
         width="1"
         height="1"
         fill="#ffffff"
         id="rect254" />
      <rect
         x="5"
         y="14"
         width="1"
         height="1"
         fill="#ffffff"
         id="rect256" />
      <rect
         x="6"
         y="14"
         width="1"
         height="1"
         fill="#ffffff"
         id="rect258" />
      <rect
         x="7"
         y="14"
         width="1"
         height="1"
         fill="#ffffff"
         id="rect260" />
      <rect
         x="9"
         y="14"
         width="1"
         height="1"
         fill="#ffffff"
         id="rect262" />
      <rect
         x="10"
         y="14"
         width="1"
         height="1"
         fill="#ffffff"
         id="rect264" />
      <rect
         x="16"
         y="14"
         width="1"
         height="1"
         fill="#ffffff"
         id="rect266" />
      <rect
         x="18"
         y="14"
         width="1"
         height="1"
         fill="#ffffff"
         id="rect268" />
      <rect
         x="27"
         y="14"
         width="1"
         height="1"
         fill="#ffffff"
         id="rect270" />
      <rect
         x="28"
         y="14"
         width="1"
         height="1"
         fill="#ffffff"
         id="rect272" />
      <rect
         x="7"
         y="15"
         width="1"
         height="1"
         fill="#ffffff"
         id="rect274" />
      <rect
         x="8"
         y="15"
         width="1"
         height="1"
         fill="#ffffff"
         id="rect276" />
      <rect
         x="9"
         y="15"
         width="1"
         height="1"
         fill="#ffffff"
         id="rect278" />
      <rect
         x="13"
         y="15"
         width="1"
         height="1"
         fill="#ffffff"
         id="rect280" />
      <rect
         x="14"
         y="15"
         width="1"
         height="1"
         fill="#ffffff"
         id="rect282" />
      <rect
         x="17"
         y="15"
         width="1"
         height="1"
         fill="#ffffff"
         id="rect284" />
      <rect
         x="20"
         y="15"
         width="1"
         height="1"
         fill="#ffffff"
         id="rect286" />
      <rect
         x="21"
         y="15"
         width="1"
         height="1"
         fill="#ffffff"
         id="rect288" />
      <rect
         x="24"
         y="15"
         width="1"
         height="1"
         fill="#ffffff"
         id="rect290" />
      <rect
         x="6"
         y="16"
         width="1"
         height="1"
         fill="#ffffff"
         id="rect292" />
      <rect
         x="8"
         y="16"
         width="1"
         height="1"
         fill="#ffffff"
         id="rect294" />
      <rect
         x="10"
         y="16"
         width="1"
         height="1"
         fill="#ffffff"
         id="rect296" />
      <rect
         x="11"
         y="16"
         width="1"
         height="1"
         fill="#ffffff"
         id="rect298" />
      <rect
         x="12"
         y="16"
         width="1"
         height="1"
         fill="#ffffff"
         id="rect300" />
      <rect
         x="14"
         y="16"
         width="1"
         height="1"
         fill="#ffffff"
         id="rect302" />
      <rect
         x="17"
         y="16"
         width="1"
         height="1"
         fill="#ffffff"
         id="rect304" />
      <rect
         x="19"
         y="16"
         width="1"
         height="1"
         fill="#ffffff"
         id="rect306" />
      <rect
         x="20"
         y="16"
         width="1"
         height="1"
         fill="#ffffff"
         id="rect308" />
      <rect
         x="21"
         y="16"
         width="1"
         height="1"
         fill="#ffffff"
         id="rect310" />
      <rect
         x="22"
         y="16"
         width="1"
         height="1"
         fill="#ffffff"
         id="rect312" />
      <rect
         x="25"
         y="16"
         width="1"
         height="1"
         fill="#ffffff"
         id="rect314" />
      <rect
         x="27"
         y="16"
         width="1"
         height="1"
         fill="#ffffff"
         id="rect316" />
      <rect
         x="28"
         y="16"
         width="1"
         height="1"
         fill="#ffffff"
         id="rect318" />
      <rect
         x="5"
         y="17"
         width="1"
         height="1"
         fill="#ffffff"
         id="rect320" />
      <rect
         x="6"
         y="17"
         width="1"
         height="1"
         fill="#ffffff"
         id="rect322" />
      <rect
         x="9"
         y="17"
         width="1"
         height="1"
         fill="#ffffff"
         id="rect324" />
      <rect
         x="11"
         y="17"
         width="1"
         height="1"
         fill="#ffffff"
         id="rect326" />
      <rect
         x="20"
         y="17"
         width="1"
         height="1"
         fill="#ffffff"
         id="rect328" />
      <rect
         x="22"
         y="17"
         width="1"
         height="1"
         fill="#ffffff"
         id="rect330" />
      <rect
         x="23"
         y="17"
         width="1"
         height="1"
         fill="#ffffff"
         id="rect332" />
      <rect
         x="25"
         y="17"
         width="1"
         height="1"
         fill="#ffffff"
         id="rect334" />
      <rect
         x="26"
         y="17"
         width="1"
         height="1"
         fill="#ffffff"
         id="rect336" />
      <rect
         x="28"
         y="17"
         width="1"
         height="1"
         fill="#ffffff"
         id="rect338" />
      <rect
         x="4"
         y="18"
         width="1"
         height="1"
         fill="#ffffff"
         id="rect340" />
      <rect
         x="8"
         y="18"
         width="1"
         height="1"
         fill="#ffffff"
         id="rect342" />
      <rect
         x="9"
         y="18"
         width="1"
         height="1"
         fill="#ffffff"
         id="rect344" />
      <rect
         x="10"
         y="18"
         width="1"
         height="1"
         fill="#ffffff"
         id="rect346" />
      <rect
         x="11"
         y="18"
         width="1"
         height="1"
         fill="#ffffff"
         id="rect348" />
      <rect
         x="12"
         y="18"
         width="1"
         height="1"
         fill="#ffffff"
         id="rect350" />
      <rect
         x="13"
         y="18"
         width="1"
         height="1"
         fill="#ffffff"
         id="rect352" />
      <rect
         x="15"
         y="18"
         width="1"
         height="1"
         fill="#ffffff"
         id="rect354" />
      <rect
         x="18"
         y="18"
         width="1"
         height="1"
         fill="#ffffff"
         id="rect356" />
      <rect
         x="20"
         y="18"
         width="1"
         height="1"
         fill="#ffffff"
         id="rect358" />
      <rect
         x="22"
         y="18"
         width="1"
         height="1"
         fill="#ffffff"
         id="rect360" />
      <rect
         x="23"
         y="18"
         width="1"
         height="1"
         fill="#ffffff"
         id="rect362" />
      <rect
         x="24"
         y="18"
         width="1"
         height="1"
         fill="#ffffff"
         id="rect364" />
      <rect
         x="26"
         y="18"
         width="1"
         height="1"
         fill="#ffffff"
         id="rect366" />
      <rect
         x="28"
         y="18"
         width="1"
         height="1"
         fill="#ffffff"
         id="rect368" />
      <rect
         x="5"
         y="19"
         width="1"
         height="1"
         fill="#ffffff"
         id="rect370" />
      <rect
         x="7"
         y="19"
         width="1"
         height="1"
         fill="#ffffff"
         id="rect372" />
      <rect
         x="11"
         y="19"
         width="1"
         height="1"
         fill="#ffffff"
         id="rect374" />
      <rect
         x="13"
         y="19"
         width="1"
         height="1"
         fill="#ffffff"
         id="rect376" />
      <rect
         x="14"
         y="19"
         width="1"
         height="1"
         fill="#ffffff"
         id="rect378" />
      <rect
         x="17"
         y="19"
         width="1"
         height="1"
         fill="#ffffff"
         id="rect380" />
      <rect
         x="18"
         y="19"
         width="1"
         height="1"
         fill="#ffffff"
         id="rect382" />
      <rect
         x="21"
         y="19"
         width="1"
         height="1"
         fill="#ffffff"
         id="rect384" />
      <rect
         x="24"
         y="19"
         width="1"
         height="1"
         fill="#ffffff"
         id="rect386" />
      <rect
         x="27"
         y="19"
         width="1"
         height="1"
         fill="#ffffff"
         id="rect388" />
      <rect
         x="4"
         y="20"
         width="1"
         height="1"
         fill="#ffffff"
         id="rect390" />
      <rect
         x="5"
         y="20"
         width="1"
         height="1"
         fill="#ffffff"
         id="rect392" />
      <rect
         x="6"
         y="20"
         width="1"
         height="1"
         fill="#ffffff"
         id="rect394" />
      <rect
         x="7"
         y="20"
         width="1"
         height="1"
         fill="#ffffff"
         id="rect396" />
      <rect
         x="8"
         y="20"
         width="1"
         height="1"
         fill="#ffffff"
         id="rect398" />
      <rect
         x="9"
         y="20"
         width="1"
         height="1"
         fill="#ffffff"
         id="rect400" />
      <rect
         x="10"
         y="20"
         width="1"
         height="1"
         fill="#ffffff"
         id="rect402" />
      <rect
         x="11"
         y="20"
         width="1"
         height="1"
         fill="#ffffff"
         id="rect404" />
      <rect
         x="20"
         y="20"
         width="1"
         height="1"
         fill="#ffffff"
         id="rect406" />
      <rect
         x="21"
         y="20"
         width="1"
         height="1"
         fill="#ffffff"
         id="rect408" />
      <rect
         x="22"
         y="20"
         width="1"
         height="1"
         fill="#ffffff"
         id="rect410" />
      <rect
         x="23"
         y="20"
         width="1"
         height="1"
         fill="#ffffff"
         id="rect412" />
      <rect
         x="24"
         y="20"
         width="1"
         height="1"
         fill="#ffffff"
         id="rect414" />
      <rect
         x="25"
         y="20"
         width="1"
         height="1"
         fill="#ffffff"
         id="rect416" />
      <rect
         x="26"
         y="20"
         width="1"
         height="1"
         fill="#ffffff"
         id="rect418" />
      <rect
         x="12"
         y="21"
         width="1"
         height="1"
         fill="#ffffff"
         id="rect420" />
      <rect
         x="13"
         y="21"
         width="1"
         height="1"
         fill="#ffffff"
         id="rect422" />
      <rect
         x="14"
         y="21"
         width="1"
         height="1"
         fill="#ffffff"
         id="rect424" />
      <rect
         x="15"
         y="21"
         width="1"
         height="1"
         fill="#ffffff"
         id="rect426" />
      <rect
         x="16"
         y="21"
         width="1"
         height="1"
         fill="#ffffff"
         id="rect428" />
      <rect
         x="17"
         y="21"
         width="1"
         height="1"
         fill="#ffffff"
         id="rect430" />
      <rect
         x="19"
         y="21"
         width="1"
         height="1"
         fill="#ffffff"
         id="rect432" />
      <rect
         x="20"
         y="21"
         width="1"
         height="1"
         fill="#ffffff"
         id="rect434" />
      <rect
         x="24"
         y="21"
         width="1"
         height="1"
         fill="#ffffff"
         id="rect436" />
      <rect
         x="25"
         y="21"
         width="1"
         height="1"
         fill="#ffffff"
         id="rect438" />
      <rect
         x="28"
         y="21"
         width="1"
         height="1"
         fill="#ffffff"
         id="rect440" />
      <rect
         x="4"
         y="22"
         width="1"
         height="1"
         fill="#ffffff"
         id="rect442" />
      <rect
         x="5"
         y="22"
         width="1"
         height="1"
         fill="#ffffff"
         id="rect444" />
      <rect
         x="6"
         y="22"
         width="1"
         height="1"
         fill="#ffffff"
         id="rect446" />
      <rect
         x="7"
         y="22"
         width="1"
         height="1"
         fill="#ffffff"
         id="rect448" />
      <rect
         x="8"
         y="22"
         width="1"
         height="1"
         fill="#ffffff"
         id="rect450" />
      <rect
         x="9"
         y="22"
         width="1"
         height="1"
         fill="#ffffff"
         id="rect452" />
      <rect
         x="10"
         y="22"
         width="1"
         height="1"
         fill="#ffffff"
         id="rect454" />
      <rect
         x="12"
         y="22"
         width="1"
         height="1"
         fill="#ffffff"
         id="rect456" />
      <rect
         x="13"
         y="22"
         width="1"
         height="1"
         fill="#ffffff"
         id="rect458" />
      <rect
         x="14"
         y="22"
         width="1"
         height="1"
         fill="#ffffff"
         id="rect460" />
      <rect
         x="17"
         y="22"
         width="1"
         height="1"
         fill="#ffffff"
         id="rect462" />
      <rect
         x="18"
         y="22"
         width="1"
         height="1"
         fill="#ffffff"
         id="rect464" />
      <rect
         x="19"
         y="22"
         width="1"
         height="1"
         fill="#ffffff"
         id="rect466" />
      <rect
         x="20"
         y="22"
         width="1"
         height="1"
         fill="#ffffff"
         id="rect468" />
      <rect
         x="22"
         y="22"
         width="1"
         height="1"
         fill="#ffffff"
         id="rect470" />
      <rect
         x="24"
         y="22"
         width="1"
         height="1"
         fill="#ffffff"
         id="rect472" />
      <rect
         x="25"
         y="22"
         width="1"
         height="1"
         fill="#ffffff"
         id="rect474" />
      <rect
         x="27"
         y="22"
         width="1"
         height="1"
         fill="#ffffff"
         id="rect476" />
      <rect
         x="28"
         y="22"
         width="1"
         height="1"
         fill="#ffffff"
         id="rect478" />
      <rect
         x="4"
         y="23"
         width="1"
         height="1"
         fill="#ffffff"
         id="rect480" />
      <rect
         x="10"
         y="23"
         width="1"
         height="1"
         fill="#ffffff"
         id="rect482" />
      <rect
         x="13"
         y="23"
         width="1"
         height="1"
         fill="#ffffff"
         id="rect484" />
      <rect
         x="14"
         y="23"
         width="1"
         height="1"
         fill="#ffffff"
         id="rect486" />
      <rect
         x="15"
         y="23"
         width="1"
         height="1"
         fill="#ffffff"
         id="rect488" />
      <rect
         x="16"
         y="23"
         width="1"
         height="1"
         fill="#ffffff"
         id="rect490" />
      <rect
         x="20"
         y="23"
         width="1"
         height="1"
         fill="#ffffff"
         id="rect492" />
      <rect
         x="24"
         y="23"
         width="1"
         height="1"
         fill="#ffffff"
         id="rect494" />
      <rect
         x="25"
         y="23"
         width="1"
         height="1"
         fill="#ffffff"
         id="rect496" />
      <rect
         x="26"
         y="23"
         width="1"
         height="1"
         fill="#ffffff"
         id="rect498" />
      <rect
         x="27"
         y="23"
         width="1"
         height="1"
         fill="#ffffff"
         id="rect500" />
      <rect
         x="4"
         y="24"
         width="1"
         height="1"
         fill="#ffffff"
         id="rect502" />
      <rect
         x="6"
         y="24"
         width="1"
         height="1"
         fill="#ffffff"
         id="rect504" />
      <rect
         x="7"
         y="24"
         width="1"
         height="1"
         fill="#ffffff"
         id="rect506" />
      <rect
         x="8"
         y="24"
         width="1"
         height="1"
         fill="#ffffff"
         id="rect508" />
      <rect
         x="10"
         y="24"
         width="1"
         height="1"
         fill="#ffffff"
         id="rect510" />
      <rect
         x="15"
         y="24"
         width="1"
         height="1"
         fill="#ffffff"
         id="rect512" />
      <rect
         x="17"
         y="24"
         width="1"
         height="1"
         fill="#ffffff"
         id="rect514" />
      <rect
         x="18"
         y="24"
         width="1"
         height="1"
         fill="#ffffff"
         id="rect516" />
      <rect
         x="20"
         y="24"
         width="1"
         height="1"
         fill="#ffffff"
         id="rect518" />
      <rect
         x="21"
         y="24"
         width="1"
         height="1"
         fill="#ffffff"
         id="rect520" />
      <rect
         x="22"
         y="24"
         width="1"
         height="1"
         fill="#ffffff"
         id="rect522" />
      <rect
         x="23"
         y="24"
         width="1"
         height="1"
         fill="#ffffff"
         id="rect524" />
      <rect
         x="24"
         y="24"
         width="1"
         height="1"
         fill="#ffffff"
         id="rect526" />
      <rect
         x="25"
         y="24"
         width="1"
         height="1"
         fill="#ffffff"
         id="rect528" />
      <rect
         x="4"
         y="25"
         width="1"
         height="1"
         fill="#ffffff"
         id="rect530" />
      <rect
         x="6"
         y="25"
         width="1"
         height="1"
         fill="#ffffff"
         id="rect532" />
      <rect
         x="7"
         y="25"
         width="1"
         height="1"
         fill="#ffffff"
         id="rect534" />
      <rect
         x="8"
         y="25"
         width="1"
         height="1"
         fill="#ffffff"
         id="rect536" />
      <rect
         x="10"
         y="25"
         width="1"
         height="1"
         fill="#ffffff"
         id="rect538" />
      <rect
         x="12"
         y="25"
         width="1"
         height="1"
         fill="#ffffff"
         id="rect540" />
      <rect
         x="13"
         y="25"
         width="1"
         height="1"
         fill="#ffffff"
         id="rect542" />
      <rect
         x="14"
         y="25"
         width="1"
         height="1"
         fill="#ffffff"
         id="rect544" />
      <rect
         x="16"
         y="25"
         width="1"
         height="1"
         fill="#ffffff"
         id="rect546" />
      <rect
         x="17"
         y="25"
         width="1"
         height="1"
         fill="#ffffff"
         id="rect548" />
      <rect
         x="23"
         y="25"
         width="1"
         height="1"
         fill="#ffffff"
         id="rect550" />
      <rect
         x="24"
         y="25"
         width="1"
         height="1"
         fill="#ffffff"
         id="rect552" />
      <rect
         x="25"
         y="25"
         width="1"
         height="1"
         fill="#ffffff"
         id="rect554" />
      <rect
         x="26"
         y="25"
         width="1"
         height="1"
         fill="#ffffff"
         id="rect556" />
      <rect
         x="4"
         y="26"
         width="1"
         height="1"
         fill="#ffffff"
         id="rect558" />
      <rect
         x="6"
         y="26"
         width="1"
         height="1"
         fill="#ffffff"
         id="rect560" />
      <rect
         x="7"
         y="26"
         width="1"
         height="1"
         fill="#ffffff"
         id="rect562" />
      <rect
         x="8"
         y="26"
         width="1"
         height="1"
         fill="#ffffff"
         id="rect564" />
      <rect
         x="10"
         y="26"
         width="1"
         height="1"
         fill="#ffffff"
         id="rect566" />
      <rect
         x="13"
         y="26"
         width="1"
         height="1"
         fill="#ffffff"
         id="rect568" />
      <rect
         x="14"
         y="26"
         width="1"
         height="1"
         fill="#ffffff"
         id="rect570" />
      <rect
         x="19"
         y="26"
         width="1"
         height="1"
         fill="#ffffff"
         id="rect572" />
      <rect
         x="23"
         y="26"
         width="1"
         height="1"
         fill="#ffffff"
         id="rect574" />
      <rect
         x="24"
         y="26"
         width="1"
         height="1"
         fill="#ffffff"
         id="rect576" />
      <rect
         x="26"
         y="26"
         width="1"
         height="1"
         fill="#ffffff"
         id="rect578" />
      <rect
         x="28"
         y="26"
         width="1"
         height="1"
         fill="#ffffff"
         id="rect580" />
      <rect
         x="4"
         y="27"
         width="1"
         height="1"
         fill="#ffffff"
         id="rect582" />
      <rect
         x="10"
         y="27"
         width="1"
         height="1"
         fill="#ffffff"
         id="rect584" />
      <rect
         x="12"
         y="27"
         width="1"
         height="1"
         fill="#ffffff"
         id="rect586" />
      <rect
         x="14"
         y="27"
         width="1"
         height="1"
         fill="#ffffff"
         id="rect588" />
      <rect
         x="17"
         y="27"
         width="1"
         height="1"
         fill="#ffffff"
         id="rect590" />
      <rect
         x="20"
         y="27"
         width="1"
         height="1"
         fill="#ffffff"
         id="rect592" />
      <rect
         x="22"
         y="27"
         width="1"
         height="1"
         fill="#ffffff"
         id="rect594" />
      <rect
         x="25"
         y="27"
         width="1"
         height="1"
         fill="#ffffff"
         id="rect596" />
      <rect
         x="4"
         y="28"
         width="1"
         height="1"
         fill="#ffffff"
         id="rect598" />
      <rect
         x="5"
         y="28"
         width="1"
         height="1"
         fill="#ffffff"
         id="rect600" />
      <rect
         x="6"
         y="28"
         width="1"
         height="1"
         fill="#ffffff"
         id="rect602" />
      <rect
         x="7"
         y="28"
         width="1"
         height="1"
         fill="#ffffff"
         id="rect604" />
      <rect
         x="8"
         y="28"
         width="1"
         height="1"
         fill="#ffffff"
         id="rect606" />
      <rect
         x="9"
         y="28"
         width="1"
         height="1"
         fill="#ffffff"
         id="rect608" />
      <rect
         x="10"
         y="28"
         width="1"
         height="1"
         fill="#ffffff"
         id="rect610" />
      <rect
         x="12"
         y="28"
         width="1"
         height="1"
         fill="#ffffff"
         id="rect612" />
      <rect
         x="15"
         y="28"
         width="1"
         height="1"
         fill="#ffffff"
         id="rect614" />
      <rect
         x="16"
         y="28"
         width="1"
         height="1"
         fill="#ffffff"
         id="rect616" />
      <rect
         x="17"
         y="28"
         width="1"
         height="1"
         fill="#ffffff"
         id="rect618" />
      <rect
         x="19"
         y="28"
         width="1"
         height="1"
         fill="#ffffff"
         id="rect620" />
      <rect
         x="20"
         y="28"
         width="1"
         height="1"
         fill="#ffffff"
         id="rect622" />
      <rect
         x="22"
         y="28"
         width="1"
         height="1"
         fill="#ffffff"
         id="rect624" />
      <rect
         x="23"
         y="28"
         width="1"
         height="1"
         fill="#ffffff"
         id="rect626" />
      <rect
         x="27"
         y="28"
         width="1"
         height="1"
         fill="#ffffff"
         id="rect628" />
      <rect
         x="28"
         y="28"
         width="1"
         height="1"
         fill="#ffffff"
         id="rect630" />
    </g>
  </g>
</svg>
