<?xml version="1.0" encoding="UTF-8"?>
<svg xmlns="http://www.w3.org/2000/svg" xmlns:xlink="http://www.w3.org/1999/xlink" width="128px" height="128px" viewBox="0 0 128 128" version="1.1">
<defs>
<linearGradient id="linear0" gradientUnits="userSpaceOnUse" x1="35.034531" y1="287.188416" x2="35.034531" y2="291.419067" gradientTransform="matrix(0.918252,0,0,0.995165,63.746136,-169.58821)">
<stop offset="0" style="stop-color:rgb(0%,0%,0%);stop-opacity:0;"/>
<stop offset="0.397085" style="stop-color:rgb(0%,0%,0%);stop-opacity:0.3;"/>
<stop offset="1" style="stop-color:rgb(0%,0%,0%);stop-opacity:0;"/>
</linearGradient>
<radialGradient id="radial0" gradientUnits="userSpaceOnUse" cx="55.085423" cy="289.199982" fx="55.085423" fy="289.199982" r="1.5" gradientTransform="matrix(1.833335,0.0000123743,-0.00000945256,1.666667,13.262708,-364.000687)">
<stop offset="0" style="stop-color:rgb(0%,0%,0%);stop-opacity:0.3;"/>
<stop offset="1" style="stop-color:rgb(0%,0%,0%);stop-opacity:0;"/>
</radialGradient>
<radialGradient id="radial1" gradientUnits="userSpaceOnUse" cx="55.085423" cy="289.199982" fx="55.085423" fy="289.199982" r="1.5" gradientTransform="matrix(-1.833335,0.0000123743,0.00000945256,1.666667,176.737289,-364.000687)">
<stop offset="0" style="stop-color:rgb(0%,0%,0%);stop-opacity:0.3;"/>
<stop offset="1" style="stop-color:rgb(0%,0%,0%);stop-opacity:0;"/>
</radialGradient>
<linearGradient id="linear1" gradientUnits="userSpaceOnUse" x1="72.499535" y1="30.000017" x2="72.5" y2="135" gradientTransform="matrix(1,0,0,1,-8,-16)">
<stop offset="0" style="stop-color:rgb(39.215687%,72.941178%,100%);stop-opacity:1;"/>
<stop offset="1" style="stop-color:rgb(21.176471%,53.725493%,90.196079%);stop-opacity:1;"/>
</linearGradient>
<linearGradient id="linear2" gradientUnits="userSpaceOnUse" x1="65" y1="179" x2="65" y2="299" >
<stop offset="0" style="stop-color:rgb(100%,100%,100%);stop-opacity:0.6;"/>
<stop offset="0.0402611" style="stop-color:rgb(100%,100%,100%);stop-opacity:0.141176;"/>
<stop offset="0.958333" style="stop-color:rgb(100%,100%,100%);stop-opacity:0.0941177;"/>
<stop offset="1" style="stop-color:rgb(100%,100%,100%);stop-opacity:0.235294;"/>
</linearGradient>
</defs>
<g id="surface80498">
<path style="fill-rule:nonzero;fill:rgb(98.039216%,98.039216%,98.039216%);fill-opacity:1;stroke-width:1;stroke-linecap:butt;stroke-linejoin:round;stroke:rgb(83.137256%,83.137256%,83.137256%);stroke-opacity:0.6;stroke-miterlimit:4;" d="M 35 209 L 95 209 L 95 269 L 35 269 Z M 35 209 " transform="matrix(1,0,0,1,0,-172)"/>
<path style=" stroke:none;fill-rule:nonzero;fill:url(#linear0);" d="M 75.75 116 L 114.25 116 L 114.25 121 L 75.75 121 Z M 75.75 116 "/>
<path style=" stroke:none;fill-rule:nonzero;fill:url(#radial0);" d="M 114.25 116 L 117 116 L 117 121 L 114.25 121 Z M 114.25 116 "/>
<path style=" stroke:none;fill-rule:nonzero;fill:url(#radial1);" d="M 75.75 116 L 73 116 L 73 121 L 75.75 121 Z M 75.75 116 "/>
<path style=" stroke:none;fill-rule:nonzero;fill:url(#linear1);" d="M 19 14 C 16 14 12 17 12 21 L 12 57 L 30 57 L 30 32 L 55 32 L 55 14 Z M 75 14 L 75 32 L 100 32 L 100 57 L 116.5 57 L 116.5 20.496094 C 116.5 17 113 14.109375 110 14.101562 Z M 12 77 L 12 112.5 C 12 115 15 118.5 19 118.5 L 55 118.5 L 55 102 L 30 102 L 30 77 Z M 100 77 L 100 102 L 75 102 L 75 118.5 L 110 118.5 C 113.601562 118.5 116.5 116 116.5 112.503906 L 116.5 77 Z M 100 77 "/>
<path style="fill:none;stroke-width:1;stroke-linecap:butt;stroke-linejoin:round;stroke:rgb(0%,18.039216%,60.000002%);stroke-opacity:0.6;stroke-miterlimit:4;" d="M 19 185.5 C 15.398438 185.5 11.5 190.101562 11.5 192.601562 L 11.5 229.5 L 30.5 229.5 L 30.5 204.5 L 55.5 204.5 L 55.5 185.5 Z M 74.5 185.5 L 74.5 204.5 L 99.5 204.5 L 99.5 229.5 L 117 229.5 L 117 192.5 C 117 190 114 185.609375 110 185.601562 Z M 11.5 248.5 L 11.5 284.503906 C 11.5 287.824219 15.398438 291.050781 19 291 L 55.5 291 L 55.5 273.5 L 30.5 273.5 L 30.5 248.5 Z M 99.5 248.5 L 99.5 273.5 L 74.5 273.5 L 74.5 291 L 110 291 C 114.25 291 117 288 117 284 L 117 248.5 Z M 99.5 248.5 " transform="matrix(1,0,0,1,0,-172)"/>
<path style=" stroke:none;fill-rule:nonzero;fill:rgb(0%,0%,0%);fill-opacity:1;" d="M 40 42 L 40 57 L 55 57 L 55 42 Z M 43 45 L 52 45 L 52 54 L 43 54 Z M 43 45 "/>
<path style=" stroke:none;fill-rule:nonzero;fill:rgb(0%,0%,0%);fill-opacity:1;" d="M 40 77 L 40 92 L 55 92 L 55 77 Z M 43 80 L 52 80 L 52 89 L 43 89 Z M 43 80 "/>
<path style=" stroke:none;fill-rule:nonzero;fill:rgb(0%,0%,0%);fill-opacity:1;" d="M 85 82 L 90 82 L 90 92 L 85 92 Z M 85 82 "/>
<path style=" stroke:none;fill-rule:nonzero;fill:rgb(0%,0%,0%);fill-opacity:1;" d="M 55 62 L 55 72 L 60 72 L 60 67 L 65 67 L 65 72 L 70 72 L 70 62 Z M 55 62 "/>
<path style=" stroke:none;fill-rule:nonzero;fill:rgb(0%,0%,0%);fill-opacity:1;" d="M 65 42 L 65 47 L 60 47 L 60 57 L 65 57 L 65 52 L 70 52 L 70 42 Z M 65 42 "/>
<path style=" stroke:none;fill-rule:nonzero;fill:rgb(0%,0%,0%);fill-opacity:1;" d="M 45 62 L 45 67 L 40 67 L 40 72 L 50 72 L 50 62 Z M 45 62 "/>
<path style=" stroke:none;fill-rule:nonzero;fill:rgb(0%,0%,0%);fill-opacity:1;" d="M 60 77 L 65 77 L 65 87 L 60 87 Z M 60 77 "/>
<path style=" stroke:none;fill-rule:nonzero;fill:rgb(0%,0%,0%);fill-opacity:1;" d="M 65 87 L 70 87 L 70 92 L 65 92 Z M 65 87 "/>
<path style=" stroke:none;fill-rule:nonzero;fill:rgb(0%,0%,0%);fill-opacity:1;" d="M 75 67 L 75 77 L 80 77 L 80 82 L 85 82 L 85 72 L 80 72 L 80 67 Z M 75 67 "/>
<path style=" stroke:none;fill-rule:nonzero;fill:rgb(0%,0%,0%);fill-opacity:1;" d="M 80 62 L 90 62 L 90 67 L 80 67 Z M 80 62 "/>
<path style=" stroke:none;fill-rule:nonzero;fill:rgb(0%,0%,0%);fill-opacity:1;" d="M 75 82 L 80 82 L 80 92 L 75 92 Z M 75 82 "/>
<path style=" stroke:none;fill-rule:nonzero;fill:rgb(0%,0%,0%);fill-opacity:1;" d="M 75 42 L 75 57 L 90 57 L 90 42 Z M 78 45 L 87 45 L 87 54 L 78 54 Z M 78 45 "/>
<path style=" stroke:none;fill-rule:nonzero;fill:rgb(0%,0%,0%);fill-opacity:1;" d="M 45 47 L 50 47 L 50 52 L 45 52 Z M 45 47 "/>
<path style=" stroke:none;fill-rule:nonzero;fill:rgb(0%,0%,0%);fill-opacity:1;" d="M 80 47 L 85 47 L 85 52 L 80 52 Z M 80 47 "/>
<path style=" stroke:none;fill-rule:nonzero;fill:rgb(0%,0%,0%);fill-opacity:1;" d="M 45 82 L 50 82 L 50 87 L 45 87 Z M 45 82 "/>
<path style=" stroke:none;fill-rule:nonzero;fill:rgb(0%,0%,0%);fill-opacity:1;" d="M 70 77 L 75 77 L 75 82 L 70 82 Z M 70 77 "/>
<path style=" stroke:none;fill-rule:nonzero;fill:rgb(0%,0%,0%);fill-opacity:1;" d="M 70 57 L 75 57 L 75 62 L 70 62 Z M 70 57 "/>
<path style="fill:none;stroke-width:1;stroke-linecap:butt;stroke-linejoin:round;stroke:url(#linear2);stroke-miterlimit:4;" d="M 20 186.5 C 15.125 186.5 12.410156 190.121094 12.5 193.5 L 12.5 228.5 L 29.5 228.5 L 29.5 203.5 L 54.5 203.5 L 54.5 186.5 Z M 75.5 186.5 L 75.601562 203.398438 L 100.5 203.5 L 100.5 228.5 L 116 228.5 L 116.101562 193.5 C 116.109375 189.648438 113.617188 186.5 109.125 186.5 Z M 12.5 249.5 L 12.5 283.5 C 12.5 286.757812 16 290.054688 20 290 L 54.5 290 L 54.5 274.5 L 29.5 274.5 L 29.5 249.5 Z M 100.5 249.5 L 100.5 274.5 L 75.5 274.5 L 75.5 290 L 109.5 290 C 113.964844 290 116 288.089844 116 284 L 116 249.5 Z M 100.5 249.5 " transform="matrix(1,0,0,1,0,-172)"/>
</g>
</svg>
