<?xml version="1.0" encoding="UTF-8"?>
<svg xmlns="http://www.w3.org/2000/svg" xmlns:xlink="http://www.w3.org/1999/xlink" width="16px" height="16px" viewBox="0 0 16 16" version="1.1">
<g id="surface80546">
<path style=" stroke:none;fill-rule:nonzero;fill:rgb(0%,0%,0%);fill-opacity:1;" d="M 2 -0.0507812 C 0.890625 -0.0507812 0 0.839844 0 1.949219 L 0 5.25 L 2 5.25 L 2 4.25 C 2 3.140625 2.890625 2.25 4 2.25 L 5 2.25 L 5 0.25 C 5 0.148438 5.015625 0.046875 5.03125 -0.0507812 Z M 10.96875 -0.0507812 C 10.984375 0.046875 11 0.148438 11 0.25 L 11 2.25 L 12 2.25 C 13.109375 2.25 14 3.140625 14 4.25 L 14 5.25 L 16 5.25 L 16 1.949219 C 16 0.839844 15.109375 -0.0507812 14 -0.0507812 Z M 0 11.25 L 0 13.949219 C 0 15.058594 0.890625 15.949219 2 15.949219 L 5 15.949219 L 5 14.25 L 4 14.25 C 2.890625 14.25 2 13.359375 2 12.25 L 2 11.25 Z M 14 11.25 L 14 12.25 C 14 13.359375 13.109375 14.25 12 14.25 L 11 14.25 L 11 15.949219 L 14 15.949219 C 15.109375 15.949219 16 15.058594 16 13.949219 L 16 11.25 Z M 14 11.25 "/>
<path style=" stroke:none;fill-rule:nonzero;fill:rgb(0%,0%,0%);fill-opacity:1;" d="M 4 4.25 L 6 4.25 L 6 6.25 L 4 6.25 Z M 4 4.25 "/>
<path style=" stroke:none;fill-rule:nonzero;fill:rgb(0%,0%,0%);fill-opacity:1;" d="M 4 10.25 L 6 10.25 L 6 12.25 L 4 12.25 Z M 4 10.25 "/>
<path style=" stroke:none;fill-rule:nonzero;fill:rgb(0%,0%,0%);fill-opacity:1;" d="M 10 4.25 L 12 4.25 L 12 6.25 L 10 6.25 Z M 10 4.25 "/>
<path style=" stroke:none;fill-rule:nonzero;fill:rgb(0%,0%,0%);fill-opacity:1;" d="M 7 5.25 L 8 5.25 L 8 7.25 L 7 7.25 Z M 7 5.25 "/>
<path style=" stroke:none;fill-rule:nonzero;fill:rgb(0%,0%,0%);fill-opacity:1;" d="M 10 7.25 L 12 7.25 L 12 8.25 L 10 8.25 Z M 10 7.25 "/>
<path style=" stroke:none;fill-rule:nonzero;fill:rgb(0%,0%,0%);fill-opacity:1;" d="M 8 8.25 L 10 8.25 L 10 9.25 L 8 9.25 Z M 8 8.25 "/>
<path style=" stroke:none;fill-rule:nonzero;fill:rgb(0%,0%,0%);fill-opacity:1;" d="M 9 10.25 L 10 10.25 L 10 12.25 L 9 12.25 Z M 9 10.25 "/>
<path style=" stroke:none;fill-rule:nonzero;fill:rgb(0%,0%,0%);fill-opacity:1;" d="M 11 11.25 L 12 11.25 L 12 12.25 L 11 12.25 Z M 11 11.25 "/>
<path style=" stroke:none;fill-rule:nonzero;fill:rgb(0%,0%,0%);fill-opacity:1;" d="M 10 9.25 L 12 9.25 L 12 10.25 L 10 10.25 Z M 10 9.25 "/>
<path style=" stroke:none;fill-rule:nonzero;fill:rgb(0%,0%,0%);fill-opacity:1;" d="M 4 7.25 L 6 7.25 L 6 8.25 L 4 8.25 Z M 4 7.25 "/>
<path style=" stroke:none;fill-rule:nonzero;fill:rgb(0%,0%,0%);fill-opacity:1;" d="M 6 8.25 L 7 8.25 L 7 10.25 L 6 10.25 Z M 6 8.25 "/>
<path style=" stroke:none;fill-rule:nonzero;fill:rgb(0%,0%,0%);fill-opacity:1;" d="M 4 8.25 L 5 8.25 L 5 9.25 L 4 9.25 Z M 4 8.25 "/>
<path style=" stroke:none;fill-rule:nonzero;fill:rgb(0%,0%,0%);fill-opacity:1;" d="M 7 11.25 L 8 11.25 L 8 12.25 L 7 12.25 Z M 7 11.25 "/>
<path style=" stroke:none;fill-rule:nonzero;fill:rgb(0%,0%,0%);fill-opacity:1;" d="M 8 4.25 L 9 4.25 L 9 5.25 L 8 5.25 Z M 8 4.25 "/>
<path style=" stroke:none;fill-rule:nonzero;fill:rgb(0%,0%,0%);fill-opacity:1;" d="M 8 6.25 L 9 6.25 L 9 7.25 L 8 7.25 Z M 8 6.25 "/>
</g>
</svg>
