<?xml version="1.0" encoding="UTF-8"?>
<svg xmlns="http://www.w3.org/2000/svg" xmlns:xlink="http://www.w3.org/1999/xlink" width="32px" height="32px" viewBox="0 0 32 32" version="1.1">
<defs>
<linearGradient id="linear0" gradientUnits="userSpaceOnUse" x1="35.034531" y1="287.188416" x2="34.994587" y2="292" gradientTransform="matrix(0.29277,0,0,0.544169,-2.479162,-127.080696)">
<stop offset="0" style="stop-color:rgb(0%,0%,0%);stop-opacity:0;"/>
<stop offset="0.485365" style="stop-color:rgb(0%,0%,0%);stop-opacity:0.3;"/>
<stop offset="1" style="stop-color:rgb(0%,0%,0%);stop-opacity:0;"/>
</linearGradient>
<radialGradient id="radial0" gradientUnits="userSpaceOnUse" cx="55.085423" cy="289.199982" fx="55.085423" fy="289.199982" r="1.5" gradientTransform="matrix(0.736006,-0.0264849,0.043619,1.150586,-39.534641,-301.114181)">
<stop offset="0" style="stop-color:rgb(0%,0%,0%);stop-opacity:0.3;"/>
<stop offset="1" style="stop-color:rgb(0%,0%,0%);stop-opacity:0;"/>
</radialGradient>
<radialGradient id="radial1" gradientUnits="userSpaceOnUse" cx="55.085423" cy="289.199982" fx="55.085423" fy="289.199982" r="1.5" gradientTransform="matrix(-0.584498,0.00594045,0.0116936,1.093623,30.163626,-286.426616)">
<stop offset="0" style="stop-color:rgb(0%,0%,0%);stop-opacity:0.3;"/>
<stop offset="1" style="stop-color:rgb(0%,0%,0%);stop-opacity:0;"/>
</radialGradient>
<linearGradient id="linear1" gradientUnits="userSpaceOnUse" x1="35.034531" y1="287.188416" x2="34.994587" y2="292" gradientTransform="matrix(0.290176,0,0,0.539347,15.171317,-125.478197)">
<stop offset="0" style="stop-color:rgb(0%,0%,0%);stop-opacity:0;"/>
<stop offset="0.485365" style="stop-color:rgb(0%,0%,0%);stop-opacity:0.3;"/>
<stop offset="1" style="stop-color:rgb(0%,0%,0%);stop-opacity:0;"/>
</linearGradient>
<radialGradient id="radial2" gradientUnits="userSpaceOnUse" cx="55.085423" cy="289.199982" fx="55.085423" fy="289.199982" r="1.5" gradientTransform="matrix(0.729484,-0.0262502,0.0432325,1.140389,-21.555759,-297.969302)">
<stop offset="0" style="stop-color:rgb(0%,0%,0%);stop-opacity:0.3;"/>
<stop offset="1" style="stop-color:rgb(0%,0%,0%);stop-opacity:0;"/>
</radialGradient>
<radialGradient id="radial3" gradientUnits="userSpaceOnUse" cx="55.085423" cy="289.199982" fx="55.085423" fy="289.199982" r="1.5" gradientTransform="matrix(-0.579318,0.0058878,0.01159,1.08393,47.524808,-283.411907)">
<stop offset="0" style="stop-color:rgb(0%,0%,0%);stop-opacity:0.3;"/>
<stop offset="1" style="stop-color:rgb(0%,0%,0%);stop-opacity:0;"/>
</radialGradient>
<linearGradient id="linear2" gradientUnits="userSpaceOnUse" x1="160" y1="289" x2="161.21875" y2="349" gradientTransform="matrix(0.51761,0,0,0.504387,-69.664925,-148.302826)">
<stop offset="0" style="stop-color:rgb(39.215687%,72.941178%,100%);stop-opacity:1;"/>
<stop offset="1" style="stop-color:rgb(21.176471%,53.725493%,90.196079%);stop-opacity:1;"/>
</linearGradient>
<linearGradient id="linear3" gradientUnits="userSpaceOnUse" x1="160" y1="289" x2="161.21875" y2="349" gradientTransform="matrix(1,0,0,1,0,0.000000000000056843)">
<stop offset="0" style="stop-color:rgb(39.215687%,72.941178%,100%);stop-opacity:1;"/>
<stop offset="1" style="stop-color:rgb(21.176471%,53.725493%,90.196079%);stop-opacity:1;"/>
</linearGradient>
<linearGradient id="linear4" gradientUnits="userSpaceOnUse" x1="146.999893" y1="287.999756" x2="146.999893" y2="352.999756" gradientTransform="matrix(1,0,0,1,0,0.000000000000056843)">
<stop offset="0" style="stop-color:rgb(39.215687%,72.941178%,100%);stop-opacity:1;"/>
<stop offset="1" style="stop-color:rgb(21.176471%,53.725493%,90.196079%);stop-opacity:1;"/>
</linearGradient>
<linearGradient id="linear5" gradientUnits="userSpaceOnUse" x1="151.999893" y1="293.166412" x2="151.499893" y2="350.309265" gradientTransform="matrix(1,0,0,1.05,0,-14.825074)">
<stop offset="0" style="stop-color:rgb(100%,100%,100%);stop-opacity:0.6;"/>
<stop offset="0.041671" style="stop-color:rgb(100%,100%,100%);stop-opacity:0.141176;"/>
<stop offset="0.923077" style="stop-color:rgb(100%,100%,100%);stop-opacity:0.0941177;"/>
<stop offset="1" style="stop-color:rgb(100%,100%,100%);stop-opacity:0.235294;"/>
</linearGradient>
<linearGradient id="linear6" gradientUnits="userSpaceOnUse" x1="160" y1="289" x2="161.21875" y2="349" gradientTransform="matrix(0,-0.504387,0.51761,0,-151.447368,99.697693)">
<stop offset="0" style="stop-color:rgb(39.215687%,72.941178%,100%);stop-opacity:1;"/>
<stop offset="1" style="stop-color:rgb(21.176471%,53.725493%,90.196079%);stop-opacity:1;"/>
</linearGradient>
<linearGradient id="linear7" gradientUnits="userSpaceOnUse" x1="160" y1="289" x2="161.21875" y2="349" gradientTransform="matrix(1,0,0,1,0.000000000000028422,0)">
<stop offset="0" style="stop-color:rgb(39.215687%,72.941178%,100%);stop-opacity:1;"/>
<stop offset="1" style="stop-color:rgb(21.176471%,53.725493%,90.196079%);stop-opacity:1;"/>
</linearGradient>
<linearGradient id="linear8" gradientUnits="userSpaceOnUse" x1="166" y1="305.000031" x2="136" y2="305.000031" gradientTransform="matrix(1,0,0,1,0.000000000000028422,0)">
<stop offset="0" style="stop-color:rgb(39.215687%,72.941178%,100%);stop-opacity:1;"/>
<stop offset="1" style="stop-color:rgb(21.176471%,53.725493%,90.196079%);stop-opacity:1;"/>
</linearGradient>
<linearGradient id="linear9" gradientUnits="userSpaceOnUse" x1="148" y1="293" x2="148" y2="319" gradientTransform="matrix(1,0,0,1.05,0.000000000000028422,-14.825074)">
<stop offset="0" style="stop-color:rgb(100%,100%,100%);stop-opacity:0.6;"/>
<stop offset="0.0769231" style="stop-color:rgb(100%,100%,100%);stop-opacity:0.141176;"/>
<stop offset="0.923077" style="stop-color:rgb(100%,100%,100%);stop-opacity:0.0941177;"/>
<stop offset="1" style="stop-color:rgb(100%,100%,100%);stop-opacity:0.235294;"/>
</linearGradient>
<linearGradient id="linear10" gradientUnits="userSpaceOnUse" x1="160" y1="289" x2="161.21875" y2="349" gradientTransform="matrix(-0.51761,0,0,0.504387,102.582977,-148.302826)">
<stop offset="0" style="stop-color:rgb(39.215687%,72.941178%,100%);stop-opacity:1;"/>
<stop offset="1" style="stop-color:rgb(21.176471%,53.725493%,90.196079%);stop-opacity:1;"/>
</linearGradient>
<linearGradient id="linear11" gradientUnits="userSpaceOnUse" x1="160" y1="289" x2="161.21875" y2="349" gradientTransform="matrix(1,0,0,1,0,0.000000000000056843)">
<stop offset="0" style="stop-color:rgb(39.215687%,72.941178%,100%);stop-opacity:1;"/>
<stop offset="1" style="stop-color:rgb(21.176471%,53.725493%,90.196079%);stop-opacity:1;"/>
</linearGradient>
<linearGradient id="linear12" gradientUnits="userSpaceOnUse" x1="146.999893" y1="287.999756" x2="146.999893" y2="352.999756" gradientTransform="matrix(1,0,0,1,0,0.000000000000056843)">
<stop offset="0" style="stop-color:rgb(39.215687%,72.941178%,100%);stop-opacity:1;"/>
<stop offset="1" style="stop-color:rgb(21.176471%,53.725493%,90.196079%);stop-opacity:1;"/>
</linearGradient>
<linearGradient id="linear13" gradientUnits="userSpaceOnUse" x1="151.999893" y1="293.166412" x2="151.499893" y2="350.309265" gradientTransform="matrix(1,0,0,1.05,0,-14.825074)">
<stop offset="0" style="stop-color:rgb(100%,100%,100%);stop-opacity:0.6;"/>
<stop offset="0.041671" style="stop-color:rgb(100%,100%,100%);stop-opacity:0.141176;"/>
<stop offset="0.923077" style="stop-color:rgb(100%,100%,100%);stop-opacity:0.0941177;"/>
<stop offset="1" style="stop-color:rgb(100%,100%,100%);stop-opacity:0.235294;"/>
</linearGradient>
<linearGradient id="linear14" gradientUnits="userSpaceOnUse" x1="160" y1="289" x2="161.21875" y2="349" gradientTransform="matrix(0,-0.504387,-0.51761,0,184.365417,99.697693)">
<stop offset="0" style="stop-color:rgb(39.215687%,72.941178%,100%);stop-opacity:1;"/>
<stop offset="1" style="stop-color:rgb(21.176471%,53.725493%,90.196079%);stop-opacity:1;"/>
</linearGradient>
<linearGradient id="linear15" gradientUnits="userSpaceOnUse" x1="160" y1="289" x2="161.21875" y2="349" gradientTransform="matrix(1,0,0,1,0.000000000000028422,0)">
<stop offset="0" style="stop-color:rgb(39.215687%,72.941178%,100%);stop-opacity:1;"/>
<stop offset="1" style="stop-color:rgb(21.176471%,53.725493%,90.196079%);stop-opacity:1;"/>
</linearGradient>
<linearGradient id="linear16" gradientUnits="userSpaceOnUse" x1="166" y1="305.000031" x2="136" y2="305.000031" gradientTransform="matrix(1,0,0,1,0.000000000000028422,0)">
<stop offset="0" style="stop-color:rgb(39.215687%,72.941178%,100%);stop-opacity:1;"/>
<stop offset="1" style="stop-color:rgb(21.176471%,53.725493%,90.196079%);stop-opacity:1;"/>
</linearGradient>
<linearGradient id="linear17" gradientUnits="userSpaceOnUse" x1="148" y1="293" x2="148" y2="319" gradientTransform="matrix(1,0,0,1.05,0.000000000000028422,-14.825074)">
<stop offset="0" style="stop-color:rgb(100%,100%,100%);stop-opacity:0.6;"/>
<stop offset="0.0769231" style="stop-color:rgb(100%,100%,100%);stop-opacity:0.141176;"/>
<stop offset="0.923077" style="stop-color:rgb(100%,100%,100%);stop-opacity:0.0941177;"/>
<stop offset="1" style="stop-color:rgb(100%,100%,100%);stop-opacity:0.235294;"/>
</linearGradient>
</defs>
<g id="surface80534">
<path style=" stroke:none;fill-rule:nonzero;fill:url(#linear0);" d="M 1.347656 29.082031 L 13.625 29.082031 L 13.625 31.816406 L 1.347656 31.816406 Z M 1.347656 29.082031 "/>
<path style=" stroke:none;fill-rule:nonzero;fill:url(#radial0);" d="M 13.625 29.082031 L 14.5 29.082031 L 14.5 31.816406 L 13.625 31.816406 Z M 13.625 29.082031 "/>
<path style=" stroke:none;fill-rule:nonzero;fill:url(#radial1);" d="M 1.347656 29.082031 L 0.472656 29.082031 L 0.472656 31.816406 L 1.347656 31.816406 Z M 1.347656 29.082031 "/>
<path style=" stroke:none;fill-rule:nonzero;fill:url(#linear1);" d="M 18.964844 29.300781 L 31.132812 29.300781 L 31.132812 32.011719 L 18.964844 32.011719 Z M 18.964844 29.300781 "/>
<path style=" stroke:none;fill-rule:nonzero;fill:url(#radial2);" d="M 31.132812 29.300781 L 32 29.300781 L 32 32.011719 L 31.132812 32.011719 Z M 31.132812 29.300781 "/>
<path style=" stroke:none;fill-rule:nonzero;fill:url(#radial3);" d="M 18.964844 29.300781 L 18.09375 29.300781 L 18.09375 32.011719 L 18.964844 32.011719 Z M 18.964844 29.300781 "/>
<path style="fill-rule:nonzero;fill:rgb(98.039216%,98.039216%,98.039216%);fill-opacity:1;stroke-width:0.999998;stroke-linecap:butt;stroke-linejoin:round;stroke:rgb(83.137256%,83.137256%,83.137256%);stroke-opacity:0.6;stroke-miterlimit:4;" d="M 171.5 206.5 L 188.5 206.5 L 188.5 223.5 L 171.5 223.5 Z M 171.5 206.5 " transform="matrix(1,0,0,1,-163.5,-199.25)"/>
<path style=" stroke:none;fill-rule:nonzero;fill:rgb(0%,0%,0%);fill-opacity:1;" d="M 8.5 7.75 L 8.5 12.8125 L 13.589844 12.8125 L 13.589844 7.75 Z M 9.773438 9.015625 L 12.316406 9.015625 L 12.316406 11.546875 L 9.773438 11.546875 Z M 9.773438 9.015625 "/>
<path style=" stroke:none;fill-rule:nonzero;fill:rgb(0%,0%,0%);fill-opacity:1;" d="M 8.5 18.628906 L 8.5 23.75 L 13.5 23.75 L 13.5 18.628906 Z M 9.75 19.910156 L 12.25 19.910156 L 12.25 22.46875 L 9.75 22.46875 Z M 9.75 19.910156 "/>
<path style=" stroke:none;fill-rule:nonzero;fill:rgb(0%,0%,0%);fill-opacity:1;" d="M 21.5 18.75 L 23.5 18.75 L 23.5 21.75 L 21.5 21.75 Z M 21.5 18.75 "/>
<path style=" stroke:none;fill-rule:nonzero;fill:rgb(0%,0%,0%);fill-opacity:1;" d="M 14.5 13.75 L 15.5 13.75 L 15.5 16.75 L 14.5 16.75 Z M 14.5 13.75 "/>
<path style=" stroke:none;fill-rule:nonzero;fill:rgb(0%,0%,0%);fill-opacity:1;" d="M 16.371094 13.75 L 17.449219 13.75 L 17.449219 16.75 L 16.371094 16.75 Z M 16.371094 13.75 "/>
<path style=" stroke:none;fill-rule:nonzero;fill:rgb(0%,0%,0%);fill-opacity:1;" d="M 15.5 10.75 L 16.5 10.75 L 16.5 12.75 L 15.5 12.75 Z M 15.5 10.75 "/>
<path style=" stroke:none;fill-rule:nonzero;fill:rgb(0%,0%,0%);fill-opacity:1;" d="M 9.5 15.75 L 12.222656 15.75 L 12.222656 16.75 L 9.5 16.75 Z M 9.5 15.75 "/>
<path style=" stroke:none;fill-rule:nonzero;fill:rgb(0%,0%,0%);fill-opacity:1;" d="M 15.5 17.75 L 16.5 17.75 L 16.5 20.75 L 15.5 20.75 Z M 15.5 17.75 "/>
<path style=" stroke:none;fill-rule:nonzero;fill:rgb(0%,0%,0%);fill-opacity:1;" d="M 16.5 20.75 L 17.5 20.75 L 17.5 21.75 L 16.5 21.75 Z M 16.5 20.75 "/>
<path style=" stroke:none;fill-rule:nonzero;fill:rgb(0%,0%,0%);fill-opacity:1;" d="M 19.5 16.75 L 21.5 16.75 L 21.5 17.75 L 19.5 17.75 Z M 19.5 16.75 "/>
<path style=" stroke:none;fill-rule:nonzero;fill:rgb(0%,0%,0%);fill-opacity:1;" d="M 21.5 13.75 L 24.5 13.75 L 24.5 14.8125 L 21.5 14.8125 Z M 21.5 13.75 "/>
<path style=" stroke:none;fill-rule:nonzero;fill:rgb(0%,0%,0%);fill-opacity:1;" d="M 19.5 18.75 L 20.5 18.75 L 20.5 21.75 L 19.5 21.75 Z M 19.5 18.75 "/>
<path style=" stroke:none;fill-rule:nonzero;fill:rgb(0%,0%,0%);fill-opacity:1;" d="M 16.5 8.75 L 17.5 8.75 L 17.5 10.75 L 16.5 10.75 Z M 16.5 8.75 "/>
<path style=" stroke:none;fill-rule:nonzero;fill:rgb(0%,0%,0%);fill-opacity:1;" d="M 11.5 13.75 L 12.5 13.75 L 12.5 16.75 L 11.5 16.75 Z M 11.5 13.75 "/>
<path style=" stroke:none;fill-rule:nonzero;fill:rgb(0%,0%,0%);fill-opacity:1;" d="M 19.5 7.75 L 19.5 12.75 L 24.5 12.75 L 24.5 7.75 Z M 20.75 9 L 23.25 9 L 23.25 11.5 L 20.75 11.5 Z M 20.75 9 "/>
<path style=" stroke:none;fill-rule:nonzero;fill:rgb(0%,0%,0%);fill-opacity:1;" d="M 10.5 9.75 L 11.589844 9.75 L 11.589844 10.8125 L 10.5 10.8125 Z M 10.5 9.75 "/>
<path style=" stroke:none;fill-rule:nonzero;fill:rgb(0%,0%,0%);fill-opacity:1;" d="M 21.457031 9.636719 L 22.542969 9.636719 L 22.542969 10.699219 L 21.457031 10.699219 Z M 21.457031 9.636719 "/>
<path style=" stroke:none;fill-rule:nonzero;fill:rgb(0%,0%,0%);fill-opacity:1;" d="M 10.457031 20.660156 L 11.542969 20.660156 L 11.542969 21.71875 L 10.457031 21.71875 Z M 10.457031 20.660156 "/>
<path style=" stroke:none;fill-rule:nonzero;fill:rgb(0%,0%,0%);fill-opacity:1;" d="M 20.5 17.75 L 21.5 17.75 L 21.5 18.75 L 20.5 18.75 Z M 20.5 17.75 "/>
<path style=" stroke:none;fill-rule:nonzero;fill:rgb(0%,0%,0%);fill-opacity:1;" d="M 19.5 14.6875 L 20.5 14.6875 L 20.5 15.6875 L 19.5 15.6875 Z M 19.5 14.6875 "/>
<path style=" stroke:none;fill-rule:nonzero;fill:rgb(0%,0%,0%);fill-opacity:1;" d="M 18.5 17.75 L 19.5 17.75 L 19.5 18.75 L 18.5 18.75 Z M 18.5 17.75 "/>
<path style=" stroke:none;fill-rule:nonzero;fill:rgb(0%,0%,0%);fill-opacity:1;" d="M 18.5 12.75 L 19.5 12.75 L 19.5 13.8125 L 18.5 13.8125 Z M 18.5 12.75 "/>
<path style=" stroke:none;fill-rule:nonzero;fill:rgb(0%,0%,0%);fill-opacity:1;" d="M 15.5 13.75 L 16.5 13.75 L 16.5 14.75 L 15.5 14.75 Z M 15.5 13.75 "/>
<path style=" stroke:none;fill-rule:nonzero;fill:url(#linear2);" d="M 3.316406 0.996094 C 1.929688 0.996094 1.765625 1.523438 1.765625 2.582031 L 1.765625 12.09375 L 5.90625 12.09375 L 5.90625 5.222656 L 13.152344 5.222656 L 13.152344 0.996094 Z M 3.316406 0.996094 "/>
<path style="fill-rule:nonzero;fill:url(#linear3);stroke-width:1.9571;stroke-linecap:butt;stroke-linejoin:round;stroke:rgb(0%,18.039216%,60.000002%);stroke-opacity:0.6;stroke-miterlimit:4;" d="M 140.634413 295.497286 C 138.44587 295.497286 137.449706 296.937772 137.502533 298.788719 L 137.502533 318.498594 L 146.498199 318.498594 L 146.498199 304.906912 L 160.497327 304.906912 L 160.497327 295.497286 Z M 140.634413 295.497286 " transform="matrix(0.51761,0,0,0.504387,-69.664925,-148.302826)"/>
<path style="fill-rule:nonzero;fill:url(#linear4);stroke-width:1.9571;stroke-linecap:butt;stroke-linejoin:round;stroke:url(#linear5);stroke-miterlimit:4;" d="M 141.366443 296.496333 C 138.000615 296.496333 138.581711 297.90584 138.498697 299.501217 L 138.498697 317.499547 L 145.502035 317.499547 L 145.502035 303.853653 L 159.501162 303.853653 L 159.501162 296.496333 Z M 141.366443 296.496333 " transform="matrix(0.51761,0,0,0.504387,-69.664925,-148.302826)"/>
<path style=" stroke:none;fill-rule:nonzero;fill:url(#linear6);" d="M 1.765625 28.578125 C 1.765625 29.933594 2.308594 30.09375 3.390625 30.09375 L 13.152344 30.09375 L 13.152344 26.058594 L 6.101562 26.058594 L 6.101562 18.996094 L 1.765625 18.996094 Z M 1.765625 28.578125 "/>
<path style="fill-rule:nonzero;fill:url(#linear7);stroke-width:1.9571;stroke-linecap:butt;stroke-linejoin:round;stroke:rgb(0%,18.039216%,60.000002%);stroke-opacity:0.6;stroke-miterlimit:4;" d="M 140.637968 295.502541 C 138.446261 295.502541 137.454959 296.936414 137.501426 298.785356 L 137.501426 318.497335 L 146.500591 318.497335 L 146.500591 304.905729 L 160.502734 304.905729 L 160.502734 295.502541 Z M 140.637968 295.502541 " transform="matrix(0,-0.504387,0.51761,0,-151.447368,99.697693)"/>
<path style="fill-rule:nonzero;fill:url(#linear8);stroke-width:1.9571;stroke-linecap:butt;stroke-linejoin:round;stroke:url(#linear9);stroke-miterlimit:4;" d="M 141.365956 296.498706 C 137.997077 296.498706 138.585663 297.909939 138.500473 299.502292 L 138.500473 317.501171 L 145.501544 317.501171 L 145.501544 303.849191 L 159.503687 303.849191 L 159.503687 296.498706 Z M 141.365956 296.498706 " transform="matrix(0,-0.504387,0.51761,0,-151.447368,99.697693)"/>
<path style=" stroke:none;fill-rule:nonzero;fill:url(#linear10);" d="M 29.601562 0.996094 C 30.988281 0.996094 31.152344 1.523438 31.152344 2.582031 L 31.152344 12.09375 L 27.011719 12.09375 L 27.011719 5.222656 L 19.765625 5.222656 L 19.765625 0.996094 Z M 29.601562 0.996094 "/>
<path style="fill-rule:nonzero;fill:url(#linear11);stroke-width:1.9571;stroke-linecap:butt;stroke-linejoin:round;stroke:rgb(0%,18.039216%,60.000002%);stroke-opacity:0.6;stroke-miterlimit:4;" d="M 140.634575 295.497286 C 138.446033 295.497286 137.449868 296.937772 137.502695 298.788719 L 137.502695 318.498594 L 146.498361 318.498594 L 146.498361 304.906912 L 160.497489 304.906912 L 160.497489 295.497286 Z M 140.634575 295.497286 " transform="matrix(-0.51761,0,0,0.504387,102.582977,-148.302826)"/>
<path style="fill-rule:nonzero;fill:url(#linear12);stroke-width:1.9571;stroke-linecap:butt;stroke-linejoin:round;stroke:url(#linear13);stroke-miterlimit:4;" d="M 141.366605 296.496333 C 138.000777 296.496333 138.581873 297.90584 138.498859 299.501217 L 138.498859 317.499547 L 145.502197 317.499547 L 145.502197 303.853653 L 159.501325 303.853653 L 159.501325 296.496333 Z M 141.366605 296.496333 " transform="matrix(-0.51761,0,0,0.504387,102.582977,-148.302826)"/>
<path style=" stroke:none;fill-rule:nonzero;fill:url(#linear14);" d="M 31.152344 28.578125 C 31.152344 29.933594 30.609375 30.09375 29.527344 30.09375 L 19.765625 30.09375 L 19.765625 26.058594 L 26.816406 26.058594 L 26.816406 18.996094 L 31.152344 18.996094 Z M 31.152344 28.578125 "/>
<path style="fill-rule:nonzero;fill:url(#linear15);stroke-width:1.9571;stroke-linecap:butt;stroke-linejoin:round;stroke:rgb(0%,18.039216%,60.000002%);stroke-opacity:0.6;stroke-miterlimit:4;" d="M 140.637968 295.502698 C 138.446261 295.502698 137.454959 296.936571 137.501426 298.785512 L 137.501426 318.497492 L 146.500591 318.497492 L 146.500591 304.905886 L 160.502734 304.905886 L 160.502734 295.502698 Z M 140.637968 295.502698 " transform="matrix(0,-0.504387,-0.51761,0,184.365417,99.697693)"/>
<path style="fill-rule:nonzero;fill:url(#linear16);stroke-width:1.9571;stroke-linecap:butt;stroke-linejoin:round;stroke:url(#linear17);stroke-miterlimit:4;" d="M 141.365956 296.498862 C 137.997077 296.498862 138.585663 297.910095 138.500473 299.502449 L 138.500473 317.501328 L 145.501544 317.501328 L 145.501544 303.849348 L 159.503687 303.849348 L 159.503687 296.498862 Z M 141.365956 296.498862 " transform="matrix(0,-0.504387,-0.51761,0,184.365417,99.697693)"/>
</g>
</svg>
