<?xml version="1.0" encoding="UTF-8"?>
<svg xmlns="http://www.w3.org/2000/svg" xmlns:xlink="http://www.w3.org/1999/xlink" width="64px" height="64px" viewBox="0 0 64 64" version="1.1">
<defs>
<linearGradient id="linear0" gradientUnits="userSpaceOnUse" x1="35.034531" y1="287.188416" x2="34.994587" y2="292" gradientTransform="matrix(0.521734,0,0,0.995165,-2.257874,-227.545231)">
<stop offset="0" style="stop-color:rgb(0%,0%,0%);stop-opacity:0;"/>
<stop offset="0.485365" style="stop-color:rgb(0%,0%,0%);stop-opacity:0.3;"/>
<stop offset="1" style="stop-color:rgb(0%,0%,0%);stop-opacity:0;"/>
</linearGradient>
<radialGradient id="radial0" gradientUnits="userSpaceOnUse" cx="55.085423" cy="289.199982" fx="55.085423" fy="289.199982" r="1.5" gradientTransform="matrix(1.311607,-0.048435,0.0777317,2.104167,-68.292938,-545.813965)">
<stop offset="0" style="stop-color:rgb(0%,0%,0%);stop-opacity:0.3;"/>
<stop offset="1" style="stop-color:rgb(0%,0%,0%);stop-opacity:0;"/>
</radialGradient>
<radialGradient id="radial1" gradientUnits="userSpaceOnUse" cx="55.085423" cy="289.199982" fx="55.085423" fy="289.199982" r="1.5" gradientTransform="matrix(-1.041611,0.0108638,0.0208387,1.999994,55.913513,-518.953659)">
<stop offset="0" style="stop-color:rgb(0%,0%,0%);stop-opacity:0.3;"/>
<stop offset="1" style="stop-color:rgb(0%,0%,0%);stop-opacity:0;"/>
</radialGradient>
<linearGradient id="linear1" gradientUnits="userSpaceOnUse" x1="35.034531" y1="287.188416" x2="34.994587" y2="292" gradientTransform="matrix(0.521734,0,0,0.995165,28.742126,-227.545231)">
<stop offset="0" style="stop-color:rgb(0%,0%,0%);stop-opacity:0;"/>
<stop offset="0.485365" style="stop-color:rgb(0%,0%,0%);stop-opacity:0.3;"/>
<stop offset="1" style="stop-color:rgb(0%,0%,0%);stop-opacity:0;"/>
</linearGradient>
<radialGradient id="radial2" gradientUnits="userSpaceOnUse" cx="55.085423" cy="289.199982" fx="55.085423" fy="289.199982" r="1.5" gradientTransform="matrix(1.311607,-0.048435,0.0777317,2.104167,-37.292938,-545.813965)">
<stop offset="0" style="stop-color:rgb(0%,0%,0%);stop-opacity:0.3;"/>
<stop offset="1" style="stop-color:rgb(0%,0%,0%);stop-opacity:0;"/>
</radialGradient>
<radialGradient id="radial3" gradientUnits="userSpaceOnUse" cx="55.085423" cy="289.199982" fx="55.085423" fy="289.199982" r="1.5" gradientTransform="matrix(-1.041611,0.0108638,0.0208387,1.999994,86.913513,-518.953659)">
<stop offset="0" style="stop-color:rgb(0%,0%,0%);stop-opacity:0.3;"/>
<stop offset="1" style="stop-color:rgb(0%,0%,0%);stop-opacity:0;"/>
</radialGradient>
<linearGradient id="linear2" gradientUnits="userSpaceOnUse" x1="160" y1="289" x2="161.21875" y2="349" gradientTransform="matrix(1,0,0,1,-133.999895,-290.95679)">
<stop offset="0" style="stop-color:rgb(39.215687%,72.941178%,100%);stop-opacity:1;"/>
<stop offset="1" style="stop-color:rgb(21.176471%,53.725493%,90.196079%);stop-opacity:1;"/>
</linearGradient>
<linearGradient id="linear3" gradientUnits="userSpaceOnUse" x1="160" y1="289" x2="161.21875" y2="349" >
<stop offset="0" style="stop-color:rgb(39.215687%,72.941178%,100%);stop-opacity:1;"/>
<stop offset="1" style="stop-color:rgb(21.176471%,53.725493%,90.196079%);stop-opacity:1;"/>
</linearGradient>
<linearGradient id="linear4" gradientUnits="userSpaceOnUse" x1="146.999893" y1="287.999756" x2="146.999893" y2="352.999756" >
<stop offset="0" style="stop-color:rgb(39.215687%,72.941178%,100%);stop-opacity:1;"/>
<stop offset="1" style="stop-color:rgb(21.176471%,53.725493%,90.196079%);stop-opacity:1;"/>
</linearGradient>
<linearGradient id="linear5" gradientUnits="userSpaceOnUse" x1="151.999893" y1="293.166412" x2="151.499893" y2="350.309265" gradientTransform="matrix(1,0,0,1.05,0,-14.825074)">
<stop offset="0" style="stop-color:rgb(100%,100%,100%);stop-opacity:0.6;"/>
<stop offset="0.041671" style="stop-color:rgb(100%,100%,100%);stop-opacity:0.141176;"/>
<stop offset="0.923077" style="stop-color:rgb(100%,100%,100%);stop-opacity:0.0941177;"/>
<stop offset="1" style="stop-color:rgb(100%,100%,100%);stop-opacity:0.235294;"/>
</linearGradient>
<linearGradient id="linear6" gradientUnits="userSpaceOnUse" x1="160" y1="289" x2="161.21875" y2="349" gradientTransform="matrix(-0.000000000000000184,-1,1,-0.000000000000000184,-292.000015,198.042953)">
<stop offset="0" style="stop-color:rgb(39.215687%,72.941178%,100%);stop-opacity:1;"/>
<stop offset="1" style="stop-color:rgb(21.176471%,53.725493%,90.196079%);stop-opacity:1;"/>
</linearGradient>
<linearGradient id="linear7" gradientUnits="userSpaceOnUse" x1="160" y1="289" x2="161.21875" y2="349" >
<stop offset="0" style="stop-color:rgb(39.215687%,72.941178%,100%);stop-opacity:1;"/>
<stop offset="1" style="stop-color:rgb(21.176471%,53.725493%,90.196079%);stop-opacity:1;"/>
</linearGradient>
<linearGradient id="linear8" gradientUnits="userSpaceOnUse" x1="166" y1="305.000031" x2="136" y2="305.000031" >
<stop offset="0" style="stop-color:rgb(39.215687%,72.941178%,100%);stop-opacity:1;"/>
<stop offset="1" style="stop-color:rgb(21.176471%,53.725493%,90.196079%);stop-opacity:1;"/>
</linearGradient>
<linearGradient id="linear9" gradientUnits="userSpaceOnUse" x1="148" y1="293" x2="148" y2="319" gradientTransform="matrix(1,0,0,1.05,-0.000000000000028422,-14.825074)">
<stop offset="0" style="stop-color:rgb(100%,100%,100%);stop-opacity:0.6;"/>
<stop offset="0.0769231" style="stop-color:rgb(100%,100%,100%);stop-opacity:0.141176;"/>
<stop offset="0.923077" style="stop-color:rgb(100%,100%,100%);stop-opacity:0.0941177;"/>
<stop offset="1" style="stop-color:rgb(100%,100%,100%);stop-opacity:0.235294;"/>
</linearGradient>
<linearGradient id="linear10" gradientUnits="userSpaceOnUse" x1="160" y1="289" x2="161.21875" y2="349" gradientTransform="matrix(-1,0,0,1,197,-290.957044)">
<stop offset="0" style="stop-color:rgb(39.215687%,72.941178%,100%);stop-opacity:1;"/>
<stop offset="1" style="stop-color:rgb(21.176471%,53.725493%,90.196079%);stop-opacity:1;"/>
</linearGradient>
<linearGradient id="linear11" gradientUnits="userSpaceOnUse" x1="160" y1="289" x2="161.21875" y2="349" >
<stop offset="0" style="stop-color:rgb(39.215687%,72.941178%,100%);stop-opacity:1;"/>
<stop offset="1" style="stop-color:rgb(21.176471%,53.725493%,90.196079%);stop-opacity:1;"/>
</linearGradient>
<linearGradient id="linear12" gradientUnits="userSpaceOnUse" x1="146.999893" y1="287.999756" x2="146.999893" y2="352.999756" >
<stop offset="0" style="stop-color:rgb(39.215687%,72.941178%,100%);stop-opacity:1;"/>
<stop offset="1" style="stop-color:rgb(21.176471%,53.725493%,90.196079%);stop-opacity:1;"/>
</linearGradient>
<linearGradient id="linear13" gradientUnits="userSpaceOnUse" x1="151.999893" y1="293.166412" x2="151.499893" y2="350.309265" gradientTransform="matrix(1,0,0,1.05,0,-14.825074)">
<stop offset="0" style="stop-color:rgb(100%,100%,100%);stop-opacity:0.6;"/>
<stop offset="0.041671" style="stop-color:rgb(100%,100%,100%);stop-opacity:0.141176;"/>
<stop offset="0.923077" style="stop-color:rgb(100%,100%,100%);stop-opacity:0.0941177;"/>
<stop offset="1" style="stop-color:rgb(100%,100%,100%);stop-opacity:0.235294;"/>
</linearGradient>
<linearGradient id="linear14" gradientUnits="userSpaceOnUse" x1="160" y1="289" x2="161.21875" y2="349" gradientTransform="matrix(0,-1,-1,0,355.000122,198.042694)">
<stop offset="0" style="stop-color:rgb(39.215687%,72.941178%,100%);stop-opacity:1;"/>
<stop offset="1" style="stop-color:rgb(21.176471%,53.725493%,90.196079%);stop-opacity:1;"/>
</linearGradient>
<linearGradient id="linear15" gradientUnits="userSpaceOnUse" x1="160" y1="289" x2="161.21875" y2="349" >
<stop offset="0" style="stop-color:rgb(39.215687%,72.941178%,100%);stop-opacity:1;"/>
<stop offset="1" style="stop-color:rgb(21.176471%,53.725493%,90.196079%);stop-opacity:1;"/>
</linearGradient>
<linearGradient id="linear16" gradientUnits="userSpaceOnUse" x1="166" y1="305.000031" x2="136" y2="305.000031" >
<stop offset="0" style="stop-color:rgb(39.215687%,72.941178%,100%);stop-opacity:1;"/>
<stop offset="1" style="stop-color:rgb(21.176471%,53.725493%,90.196079%);stop-opacity:1;"/>
</linearGradient>
<linearGradient id="linear17" gradientUnits="userSpaceOnUse" x1="148" y1="293" x2="148" y2="319" gradientTransform="matrix(1,0,0,1.05,0,-14.825074)">
<stop offset="0" style="stop-color:rgb(100%,100%,100%);stop-opacity:0.6;"/>
<stop offset="0.0769231" style="stop-color:rgb(100%,100%,100%);stop-opacity:0.141176;"/>
<stop offset="0.923077" style="stop-color:rgb(100%,100%,100%);stop-opacity:0.0941177;"/>
<stop offset="1" style="stop-color:rgb(100%,100%,100%);stop-opacity:0.235294;"/>
</linearGradient>
</defs>
<g id="surface80510">
<path style=" stroke:none;fill-rule:nonzero;fill:url(#linear0);" d="M 4.5625 58.042969 L 26.4375 58.042969 L 26.4375 63.042969 L 4.5625 63.042969 Z M 4.5625 58.042969 "/>
<path style=" stroke:none;fill-rule:nonzero;fill:url(#radial0);" d="M 26.4375 58.042969 L 28 58.042969 L 28 63.042969 L 26.4375 63.042969 Z M 26.4375 58.042969 "/>
<path style=" stroke:none;fill-rule:nonzero;fill:url(#radial1);" d="M 4.5625 58.042969 L 3 58.042969 L 3 63.042969 L 4.5625 63.042969 Z M 4.5625 58.042969 "/>
<path style=" stroke:none;fill-rule:nonzero;fill:url(#linear1);" d="M 35.5625 58.042969 L 57.4375 58.042969 L 57.4375 63.042969 L 35.5625 63.042969 Z M 35.5625 58.042969 "/>
<path style=" stroke:none;fill-rule:nonzero;fill:url(#radial2);" d="M 57.4375 58.042969 L 59 58.042969 L 59 63.042969 L 57.4375 63.042969 Z M 57.4375 58.042969 "/>
<path style=" stroke:none;fill-rule:nonzero;fill:url(#radial3);" d="M 35.5625 58.042969 L 34 58.042969 L 34 63.042969 L 35.5625 63.042969 Z M 35.5625 58.042969 "/>
<path style="fill-rule:nonzero;fill:rgb(98.039216%,98.039216%,98.039216%);fill-opacity:1;stroke-width:1;stroke-linecap:butt;stroke-linejoin:round;stroke:rgb(83.137256%,83.137256%,83.137256%);stroke-opacity:0.6;stroke-miterlimit:4;" d="M 148 304 L 178.5 304 L 178.5 334.5 L 148 334.5 Z M 148 304 " transform="matrix(1,0,0,1,-132,-286.957031)"/>
<path style=" stroke:none;fill-rule:nonzero;fill:rgb(0%,0%,0%);fill-opacity:1;" d="M 17.578125 18.621094 L 17.578125 27.035156 L 25.992188 27.035156 L 25.992188 18.621094 Z M 19.679688 20.722656 L 23.886719 20.722656 L 23.886719 24.929688 L 19.679688 24.929688 Z M 19.679688 20.722656 "/>
<path style=" stroke:none;fill-rule:nonzero;fill:rgb(0%,0%,0%);fill-opacity:1;" d="M 17.578125 37.550781 L 17.578125 45.964844 L 25.992188 45.964844 L 25.992188 37.550781 Z M 19.679688 39.65625 L 23.886719 39.65625 L 23.886719 43.863281 L 19.679688 43.863281 Z M 19.679688 39.65625 "/>
<path style=" stroke:none;fill-rule:nonzero;fill:rgb(0%,0%,0%);fill-opacity:1;" d="M 41.765625 40.707031 L 43.871094 40.707031 L 43.871094 45.964844 L 41.765625 45.964844 Z M 41.765625 40.707031 "/>
<path style=" stroke:none;fill-rule:nonzero;fill:rgb(0%,0%,0%);fill-opacity:1;" d="M 27.042969 29.136719 L 29.148438 29.136719 L 29.148438 34.394531 L 27.042969 34.394531 Z M 27.042969 29.136719 "/>
<path style=" stroke:none;fill-rule:nonzero;fill:rgb(0%,0%,0%);fill-opacity:1;" d="M 31.25 29.136719 L 33.351562 29.136719 L 33.351562 34.394531 L 31.25 34.394531 Z M 31.25 29.136719 "/>
<path style=" stroke:none;fill-rule:nonzero;fill:rgb(0%,0%,0%);fill-opacity:1;" d="M 30.199219 21.777344 L 32.300781 21.777344 L 32.300781 26.613281 L 30.199219 26.613281 Z M 30.199219 21.777344 "/>
<path style=" stroke:none;fill-rule:nonzero;fill:rgb(0%,0%,0%);fill-opacity:1;" d="M 18.628906 32.292969 L 23.886719 32.292969 L 23.886719 34.394531 L 18.628906 34.394531 Z M 18.628906 32.292969 "/>
<path style=" stroke:none;fill-rule:nonzero;fill:rgb(0%,0%,0%);fill-opacity:1;" d="M 29.148438 37.550781 L 31.25 37.550781 L 31.25 43.011719 L 29.148438 43.011719 Z M 29.148438 37.550781 "/>
<path style=" stroke:none;fill-rule:nonzero;fill:rgb(0%,0%,0%);fill-opacity:1;" d="M 31.25 42.808594 L 33.351562 42.808594 L 33.351562 44.914062 L 31.25 44.914062 Z M 31.25 42.808594 "/>
<path style=" stroke:none;fill-rule:nonzero;fill:rgb(0%,0%,0%);fill-opacity:1;" d="M 36.507812 34.394531 L 41.765625 34.394531 L 41.765625 36.5 L 36.507812 36.5 Z M 36.507812 34.394531 "/>
<path style=" stroke:none;fill-rule:nonzero;fill:rgb(0%,0%,0%);fill-opacity:1;" d="M 39.664062 29.136719 L 44.921875 29.136719 L 44.921875 31.242188 L 39.664062 31.242188 Z M 39.664062 29.136719 "/>
<path style=" stroke:none;fill-rule:nonzero;fill:rgb(0%,0%,0%);fill-opacity:1;" d="M 37.558594 40.707031 L 39.664062 40.707031 L 39.664062 45.964844 L 37.558594 45.964844 Z M 37.558594 40.707031 "/>
<path style=" stroke:none;fill-rule:nonzero;fill:rgb(0%,0%,0%);fill-opacity:1;" d="M 32.300781 18.621094 L 34.40625 18.621094 L 34.40625 24.089844 L 32.300781 24.089844 Z M 32.300781 18.621094 "/>
<path style=" stroke:none;fill-rule:nonzero;fill:rgb(0%,0%,0%);fill-opacity:1;" d="M 21.785156 28.925781 L 23.886719 28.925781 L 23.886719 34.394531 L 21.785156 34.394531 Z M 21.785156 28.925781 "/>
<path style=" stroke:none;fill-rule:nonzero;fill:rgb(0%,0%,0%);fill-opacity:1;" d="M 36.507812 18.621094 L 36.507812 27.035156 L 44.921875 27.035156 L 44.921875 18.621094 Z M 38.613281 20.722656 L 42.820312 20.722656 L 42.820312 24.929688 L 38.613281 24.929688 Z M 38.613281 20.722656 "/>
<path style=" stroke:none;fill-rule:nonzero;fill:rgb(0%,0%,0%);fill-opacity:1;" d="M 20.734375 21.777344 L 22.835938 21.777344 L 22.835938 23.878906 L 20.734375 23.878906 Z M 20.734375 21.777344 "/>
<path style=" stroke:none;fill-rule:nonzero;fill:rgb(0%,0%,0%);fill-opacity:1;" d="M 39.664062 21.777344 L 41.765625 21.777344 L 41.765625 23.878906 L 39.664062 23.878906 Z M 39.664062 21.777344 "/>
<path style=" stroke:none;fill-rule:nonzero;fill:rgb(0%,0%,0%);fill-opacity:1;" d="M 20.734375 40.707031 L 22.835938 40.707031 L 22.835938 42.808594 L 20.734375 42.808594 Z M 20.734375 40.707031 "/>
<path style=" stroke:none;fill-rule:nonzero;fill:rgb(0%,0%,0%);fill-opacity:1;" d="M 39.664062 36.5 L 41.765625 36.5 L 41.765625 39.234375 L 39.664062 39.234375 Z M 39.664062 36.5 "/>
<path style=" stroke:none;fill-rule:nonzero;fill:rgb(0%,0%,0%);fill-opacity:1;" d="M 36.507812 32.292969 L 38.613281 32.292969 L 38.613281 34.394531 L 36.507812 34.394531 Z M 36.507812 32.292969 "/>
<path style=" stroke:none;fill-rule:nonzero;fill:rgb(0%,0%,0%);fill-opacity:1;" d="M 34.40625 36.5 L 36.507812 36.5 L 36.507812 38.601562 L 34.40625 38.601562 Z M 34.40625 36.5 "/>
<path style=" stroke:none;fill-rule:nonzero;fill:rgb(0%,0%,0%);fill-opacity:1;" d="M 34.40625 27.035156 L 36.507812 27.035156 L 36.507812 29.136719 L 34.40625 29.136719 Z M 34.40625 27.035156 "/>
<path style=" stroke:none;fill-rule:nonzero;fill:rgb(0%,0%,0%);fill-opacity:1;" d="M 29.148438 29.136719 L 31.25 29.136719 L 31.25 31.242188 L 29.148438 31.242188 Z M 29.148438 29.136719 "/>
<path style=" stroke:none;fill-rule:nonzero;fill:url(#linear2);" d="M 7 5.042969 C 4.316406 5.042969 4 6.089844 4 8.1875 L 4 27.042969 L 12 27.042969 L 12 13.425781 L 26 13.425781 L 26 5.042969 Z M 7 5.042969 "/>
<path style="fill-rule:nonzero;fill:url(#linear3);stroke-width:0.999995;stroke-linecap:butt;stroke-linejoin:round;stroke:rgb(0%,18.039216%,60.000002%);stroke-opacity:0.6;stroke-miterlimit:4;" d="M 140.636614 295.499758 C 138.441301 295.499758 137.45302 296.933352 137.499895 298.784915 L 137.499895 318.499758 L 146.499895 318.499758 L 146.499895 304.909915 L 160.499895 304.909915 L 160.499895 295.499758 Z M 140.636614 295.499758 " transform="matrix(1,0,0,1,-133.999895,-290.95679)"/>
<path style="fill-rule:nonzero;fill:url(#linear4);stroke-width:0.999995;stroke-linecap:butt;stroke-linejoin:round;stroke:url(#linear5);stroke-miterlimit:4;" d="M 141.363176 296.499758 C 137.999895 296.499758 138.581926 297.909915 138.499895 299.499758 L 138.499895 317.499758 L 145.499895 317.499758 L 145.499895 303.851321 L 159.499895 303.851321 L 159.499895 296.499758 Z M 141.363176 296.499758 " transform="matrix(1,0,0,1,-133.999895,-290.95679)"/>
<path style=" stroke:none;fill-rule:nonzero;fill:url(#linear6);" d="M 4 57.042969 C 4 59.730469 5.046875 60.042969 7.144531 60.042969 L 26 60.042969 L 26 52.042969 L 12.382812 52.042969 L 12.382812 38.042969 L 4 38.042969 Z M 4 57.042969 "/>
<path style="fill-rule:nonzero;fill:url(#linear7);stroke-width:0.999995;stroke-linecap:butt;stroke-linejoin:round;stroke:rgb(0%,18.039216%,60.000002%);stroke-opacity:0.6;stroke-miterlimit:4;" d="M 140.636703 295.500015 C 138.441391 295.500015 137.45311 296.933609 137.499985 298.785172 L 137.499985 318.500015 L 146.499985 318.500015 L 146.499985 304.910172 L 160.499985 304.910172 L 160.499985 295.500015 Z M 140.636703 295.500015 " transform="matrix(-0.000000000000000184,-1,1,-0.000000000000000184,-292.000015,198.042953)"/>
<path style="fill-rule:nonzero;fill:url(#linear8);stroke-width:0.999995;stroke-linecap:butt;stroke-linejoin:round;stroke:url(#linear9);stroke-miterlimit:4;" d="M 141.363266 296.500015 C 137.999985 296.500015 138.582016 297.910172 138.499985 299.500015 L 138.499985 317.500015 L 145.499985 317.500015 L 145.499985 303.851578 L 159.499985 303.851578 L 159.499985 296.500015 Z M 141.363266 296.500015 " transform="matrix(-0.000000000000000184,-1,1,-0.000000000000000184,-292.000015,198.042953)"/>
<path style=" stroke:none;fill-rule:nonzero;fill:url(#linear10);" d="M 56 5.042969 C 58.6875 5.042969 59 6.089844 59 8.1875 L 59 27.042969 L 51 27.042969 L 51 13.425781 L 37 13.425781 L 37 5.042969 Z M 56 5.042969 "/>
<path style="fill-rule:nonzero;fill:url(#linear11);stroke-width:0.999995;stroke-linecap:butt;stroke-linejoin:round;stroke:rgb(0%,18.039216%,60.000002%);stroke-opacity:0.6;stroke-miterlimit:4;" d="M 140.636719 295.500012 C 138.441406 295.500012 137.453125 296.933606 137.5 298.785169 L 137.5 318.500012 L 146.5 318.500012 L 146.5 304.910169 L 160.5 304.910169 L 160.5 295.500012 Z M 140.636719 295.500012 " transform="matrix(-1,0,0,1,197,-290.957044)"/>
<path style="fill-rule:nonzero;fill:url(#linear12);stroke-width:0.999995;stroke-linecap:butt;stroke-linejoin:round;stroke:url(#linear13);stroke-miterlimit:4;" d="M 141.363281 296.500012 C 138 296.500012 138.582031 297.910169 138.5 299.500012 L 138.5 317.500012 L 145.5 317.500012 L 145.5 303.851575 L 159.5 303.851575 L 159.5 296.500012 Z M 141.363281 296.500012 " transform="matrix(-1,0,0,1,197,-290.957044)"/>
<path style=" stroke:none;fill-rule:nonzero;fill:url(#linear14);" d="M 59 57.042969 C 59 59.726562 57.953125 60.042969 55.855469 60.042969 L 37 60.042969 L 37 52.042969 L 50.621094 52.042969 L 50.621094 38.042969 L 59 38.042969 Z M 59 57.042969 "/>
<path style="fill-rule:nonzero;fill:url(#linear15);stroke-width:0.999995;stroke-linecap:butt;stroke-linejoin:round;stroke:rgb(0%,18.039216%,60.000002%);stroke-opacity:0.6;stroke-miterlimit:4;" d="M 140.636444 295.500122 C 138.441132 295.500122 137.45285 296.933716 137.503632 298.785278 L 137.503632 318.500122 L 146.499725 318.500122 L 146.499725 304.910278 L 160.499725 304.910278 L 160.499725 295.500122 Z M 140.636444 295.500122 " transform="matrix(0,-1,-1,0,355.000122,198.042694)"/>
<path style="fill-rule:nonzero;fill:url(#linear16);stroke-width:0.999995;stroke-linecap:butt;stroke-linejoin:round;stroke:url(#linear17);stroke-miterlimit:4;" d="M 141.366913 296.500122 C 137.999725 296.500122 138.581757 297.910278 138.499725 299.500122 L 138.499725 317.500122 L 145.499725 317.500122 L 145.499725 303.851685 L 159.499725 303.851685 L 159.499725 296.500122 Z M 141.366913 296.500122 " transform="matrix(0,-1,-1,0,355.000122,198.042694)"/>
</g>
</svg>
